<?xml version="1.0" encoding="utf-8"?>
<!-- Generator: Adobe Illustrator 15.0.2, SVG Export Plug-In . SVG Version: 6.00 Build 0)  -->
<!DOCTYPE svg PUBLIC "-//W3C//DTD SVG 1.1//EN" "http://www.w3.org/Graphics/SVG/1.1/DTD/svg11.dtd">
<svg version="1.1" id="Calque_1" xmlns="http://www.w3.org/2000/svg" xmlns:xlink="http://www.w3.org/1999/xlink" x="0px" y="0px"
	 width="24px" height="24px" viewBox="28 0 24 24" enable-background="new 28 0 24 24" xml:space="preserve">
<g>
	<path fill="#808090" d="M42.878,6.584c-0.184,0-0.362,1.119-0.538,1.155l-2.199,3.582l2.153,1.217l-0.743,4.163
		c0.446-0.419,0.94-0.869,1.307-1.169c1.791-1.468,3.643-2.983,3.643-5.33C46.501,8.072,45.012,6.584,42.878,6.584z"/>
	<path fill="#808090" d="M37.296,12.229l2.182-3.548c-0.6-0.506-1.425-2.097-2.354-2.097c-2.133,0-3.624,1.487-3.624,3.617
		c0,2.347,1.85,3.862,3.64,5.329c0.604,0.496,1.56,1.403,2.059,1.885l0.666-3.731L37.296,12.229z"/>
</g>
</svg>
