<?xml version="1.0" encoding="utf-8"?>
<!-- Generator: Adobe Illustrator 15.0.2, SVG Export Plug-In . SVG Version: 6.00 Build 0)  -->
<!DOCTYPE svg PUBLIC "-//W3C//DTD SVG 1.1//EN" "http://www.w3.org/Graphics/SVG/1.1/DTD/svg11.dtd">
<svg version="1.1" id="Calque_1" xmlns="http://www.w3.org/2000/svg" xmlns:xlink="http://www.w3.org/1999/xlink" x="0px" y="0px"
	 width="24px" height="24px" viewBox="0 0 24 24" enable-background="new 0 0 24 24" xml:space="preserve">
<path fill="#9595A4" d="M11.729,4c-0.654,0-1.191,0.455-1.313,1.076h-0.035L6.068,9.932h2.156l2.983-3.354
	c0.161,0.068,0.337,0.119,0.521,0.119c0.188,0,0.361-0.051,0.524-0.119l2.979,3.354h2.16l-4.316-4.854h-0.033
	C12.926,4.455,12.389,4,11.729,4L11.729,4z M3.913,10.293c-0.599,0-1.079,0.48-1.079,1.079v0.539c0,0.569,0.437,1.017,0.995,1.063
	l1.701,5.946C6.068,20,6.608,20,7.146,20h9.708c0.541,0,1.078,0,1.617-1.079l1.703-5.946c0.557-0.047,0.992-0.494,0.992-1.063
	v-0.539c0-0.599-0.479-1.079-1.076-1.079H3.913L3.913,10.293z M6.946,12.988h0.269c0.598,0,1.188,0.451,1.313,1.012l0.759,3.354
	c0.126,0.563-0.262,1.026-0.858,1.026H8.157c-0.599,0-1.188-0.463-1.314-1.026L6.085,14C5.958,13.439,6.348,12.988,6.946,12.988
	L6.946,12.988z M12.001,12.988c0.599,0,1.077,0.482,1.077,1.08v3.234c0,0.6-0.479,1.077-1.077,1.077s-1.08-0.479-1.08-1.077v-3.234
	C10.922,13.471,11.403,12.988,12.001,12.988L12.001,12.988z M16.785,12.988h0.271c0.598,0,0.982,0.451,0.857,1.012l-0.76,3.354
	c-0.125,0.563-0.715,1.026-1.313,1.026H15.57c-0.598,0-0.984-0.463-0.857-1.026L15.473,14
	C15.598,13.439,16.188,12.988,16.785,12.988L16.785,12.988z"/>
</svg>
