<?xml version="1.0" encoding="utf-8"?>
<!-- Generator: Adobe Illustrator 15.0.2, SVG Export Plug-In . SVG Version: 6.00 Build 0)  -->
<!DOCTYPE svg PUBLIC "-//W3C//DTD SVG 1.1//EN" "http://www.w3.org/Graphics/SVG/1.1/DTD/svg11.dtd">
<svg version="1.1" id="Calque_1" xmlns="http://www.w3.org/2000/svg" xmlns:xlink="http://www.w3.org/1999/xlink" x="0px" y="0px"
	 width="24px" height="24px" viewBox="0 0 24 24" enable-background="new 0 0 24 24" xml:space="preserve">
<path fill="#9595A4" d="M15.451,12.982c-0.715,0-1.357,0.301-1.811,0.781l-2.68-1.346c0.024-0.138,0.037-0.28,0.037-0.425
	c0-0.217-0.028-0.427-0.081-0.628l2.824-1.729c0.34,0.263,0.766,0.42,1.229,0.42c1.107,0,2.008-0.898,2.008-2.006
	c0-1.108-0.898-2.007-2.008-2.007s-2.006,0.898-2.006,2.007c0,0.128,0.014,0.252,0.035,0.374l-2.825,1.73
	c-0.436-0.39-1.012-0.627-1.643-0.627c-1.362,0-2.466,1.104-2.466,2.466c0,1.363,1.104,2.466,2.466,2.466
	c0.706,0,1.341-0.297,1.791-0.771L13,15.035c-0.023,0.143-0.039,0.287-0.039,0.436c0,1.375,1.115,2.486,2.488,2.486
	s2.486-1.111,2.486-2.486C17.936,14.098,16.824,12.982,15.451,12.982z"/>
</svg>
