<?xml version="1.0" encoding="utf-8"?>
<!-- Generator: Adobe Illustrator 15.0.2, SVG Export Plug-In . SVG Version: 6.00 Build 0)  -->
<!DOCTYPE svg PUBLIC "-//W3C//DTD SVG 1.1//EN" "http://www.w3.org/Graphics/SVG/1.1/DTD/svg11.dtd">
<svg version="1.1" id="Calque_1" xmlns="http://www.w3.org/2000/svg" xmlns:xlink="http://www.w3.org/1999/xlink" x="0px" y="0px"
	 width="24px" height="24px" viewBox="0 0 24 24" enable-background="new 0 0 24 24" xml:space="preserve">
<path fill="#42B348" d="M18.345,16.468l-2.451-2.451c-0.215-0.215-0.604-0.194-0.996,0.01l-1.068-1.067
	c1.393-1.819,1.261-4.433-0.404-6.099c-1.813-1.812-4.751-1.812-6.564,0c-1.813,1.813-1.813,4.753,0,6.564
	c1.666,1.665,4.279,1.797,6.099,0.403l1.067,1.067c-0.202,0.393-0.225,0.781-0.01,0.998l2.451,2.451
	c0.311,0.309,0.982,0.139,1.499-0.381C18.483,17.448,18.653,16.776,18.345,16.468z M7.547,12.733c-1.431-1.433-1.431-3.753,0-5.187
	c1.433-1.431,3.751-1.43,5.185,0c1.433,1.432,1.433,3.752,0,5.187C11.299,14.165,8.978,14.165,7.547,12.733z"/>
</svg>
