<?xml version="1.0" encoding="utf-8"?>
<!-- Generator: Adobe Illustrator 15.0.0, SVG Export Plug-In . SVG Version: 6.00 Build 0)  -->
<!DOCTYPE svg PUBLIC "-//W3C//DTD SVG 1.1//EN" "http://www.w3.org/Graphics/SVG/1.1/DTD/svg11.dtd" [
	<!ENTITY ns_extend "http://ns.adobe.com/Extensibility/1.0/">
	<!ENTITY ns_ai "http://ns.adobe.com/AdobeIllustrator/10.0/">
	<!ENTITY ns_graphs "http://ns.adobe.com/Graphs/1.0/">
	<!ENTITY ns_vars "http://ns.adobe.com/Variables/1.0/">
	<!ENTITY ns_imrep "http://ns.adobe.com/ImageReplacement/1.0/">
	<!ENTITY ns_sfw "http://ns.adobe.com/SaveForWeb/1.0/">
	<!ENTITY ns_custom "http://ns.adobe.com/GenericCustomNamespace/1.0/">
	<!ENTITY ns_adobe_xpath "http://ns.adobe.com/XPath/1.0/">
]>
<svg version="1.1" id="Facebook_1_" xmlns:x="&ns_extend;" xmlns:i="&ns_ai;" xmlns:graph="&ns_graphs;"
	 xmlns="http://www.w3.org/2000/svg" xmlns:xlink="http://www.w3.org/1999/xlink" x="0px" y="0px" width="119.999px" height="24px"
	 viewBox="0 0 119.999 24" enable-background="new 0 0 119.999 24" xml:space="preserve">
<metadata>
	<sfw  xmlns="&ns_sfw;">
		<slices></slices>
		<sliceSourceBounds  height="19.501" width="119.999" y="2.75" x="-12.5" bottomLeftOrigin="true"></sliceSourceBounds>
	</sfw>
</metadata>
<path fill="#2D2D2D" d="M24,4.557c-0.884,0.393-1.832,0.655-2.828,0.776c1.018-0.609,1.797-1.574,2.164-2.724
	c-0.952,0.565-2.008,0.974-3.127,1.196c-0.896-0.957-2.178-1.556-3.593-1.556c-2.721,0-4.925,2.202-4.925,4.923
	c0,0.387,0.043,0.763,0.125,1.122C7.725,8.089,4.097,6.131,1.67,3.149C1.247,3.877,1.003,4.724,1.003,5.626
	c0,1.709,0.87,3.215,2.188,4.098C2.385,9.699,1.625,9.477,0.962,9.106V9.17c0,2.386,1.698,4.374,3.949,4.827
	c-0.411,0.112-0.847,0.172-1.298,0.172c-0.317,0-0.625-0.028-0.924-0.087c0.625,1.955,2.443,3.379,4.597,3.42
	c-1.685,1.318-3.804,2.105-6.112,2.105c-0.398,0-0.787-0.021-1.174-0.068c2.18,1.396,4.766,2.211,7.547,2.211
	c9.056,0,14.009-7.501,14.009-14.007c0-0.214-0.005-0.425-0.014-0.636C22.504,6.411,23.342,5.544,24,4.557L24,4.557z"/>
<path fill="#4FA5E9" d="M48,4.557c-0.884,0.393-1.832,0.655-2.828,0.776c1.018-0.609,1.797-1.574,2.164-2.724
	c-0.952,0.565-2.008,0.974-3.127,1.196c-0.896-0.957-2.178-1.556-3.593-1.556c-2.722,0-4.925,2.202-4.925,4.923
	c0,0.387,0.043,0.763,0.125,1.122C31.725,8.088,28.096,6.13,25.67,3.148c-0.423,0.728-0.667,1.574-0.667,2.477
	c0,1.709,0.87,3.215,2.188,4.098c-0.808-0.024-1.566-0.247-2.229-0.617V9.17c0,2.386,1.698,4.374,3.949,4.827
	c-0.411,0.112-0.847,0.172-1.298,0.172c-0.317,0-0.625-0.028-0.924-0.087c0.625,1.955,2.442,3.379,4.597,3.42
	c-1.685,1.318-3.804,2.105-6.112,2.105c-0.398,0-0.787-0.021-1.174-0.068c2.18,1.396,4.766,2.211,7.547,2.211
	c9.057,0,14.01-7.501,14.01-14.007c0-0.214-0.006-0.425-0.015-0.636C46.504,6.411,47.342,5.544,48,4.557L48,4.557z"/>
<path opacity="0.35" fill="#2D2D2D" d="M72,4.557c-0.884,0.393-1.832,0.655-2.828,0.776c1.018-0.609,1.797-1.574,2.164-2.724
	c-0.952,0.565-2.008,0.974-3.127,1.196c-0.896-0.957-2.178-1.556-3.593-1.556c-2.722,0-4.925,2.202-4.925,4.923
	c0,0.387,0.043,0.763,0.125,1.122c-4.092-0.205-7.719-2.163-10.146-5.145c-0.423,0.728-0.667,1.575-0.667,2.477
	c0,1.709,0.87,3.215,2.188,4.098c-0.807-0.025-1.566-0.247-2.229-0.618V9.17c0,2.386,1.698,4.374,3.949,4.827
	c-0.411,0.112-0.847,0.172-1.298,0.172c-0.317,0-0.625-0.028-0.924-0.087c0.625,1.955,2.442,3.379,4.597,3.42
	c-1.685,1.318-3.804,2.105-6.112,2.105c-0.398,0-0.787-0.021-1.174-0.068c2.18,1.396,4.766,2.211,7.547,2.211
	c9.057,0,14.01-7.501,14.01-14.007c0-0.214-0.006-0.425-0.015-0.636C70.504,6.411,71.342,5.544,72,4.557L72,4.557z"/>
<path fill="#4FA5E9" d="M96,4.557c-0.884,0.393-1.832,0.655-2.828,0.776c1.018-0.609,1.797-1.574,2.164-2.724
	c-0.952,0.565-2.008,0.974-3.127,1.196c-0.896-0.957-2.178-1.556-3.593-1.556c-2.722,0-4.925,2.202-4.925,4.923
	c0,0.387,0.043,0.763,0.125,1.122C79.725,8.088,76.096,6.13,73.67,3.148c-0.423,0.728-0.667,1.574-0.667,2.477
	c0,1.709,0.87,3.215,2.188,4.098c-0.808-0.024-1.566-0.247-2.229-0.617V9.17c0,2.386,1.698,4.374,3.949,4.827
	c-0.411,0.112-0.847,0.172-1.298,0.172c-0.317,0-0.625-0.028-0.924-0.087c0.625,1.955,2.442,3.379,4.597,3.42
	c-1.685,1.318-3.804,2.105-6.112,2.105c-0.398,0-0.787-0.021-1.174-0.068c2.18,1.396,4.766,2.211,7.547,2.211
	c9.057,0,14.01-7.501,14.01-14.007c0-0.214-0.006-0.425-0.015-0.636C94.504,6.411,95.342,5.544,96,4.557L96,4.557z"/>
<path fill="#4FA5E9" d="M119.999,4.557c-0.884,0.393-1.832,0.655-2.828,0.776c1.018-0.609,1.797-1.574,2.164-2.724
	c-0.952,0.565-2.008,0.974-3.127,1.196c-0.896-0.957-2.178-1.556-3.593-1.556c-2.722,0-4.925,2.202-4.925,4.923
	c0,0.387,0.043,0.763,0.125,1.122c-4.092-0.206-7.721-2.164-10.146-5.146c-0.423,0.728-0.667,1.574-0.667,2.477
	c0,1.709,0.87,3.215,2.188,4.098c-0.808-0.024-1.566-0.247-2.229-0.617V9.17c0,2.386,1.698,4.374,3.949,4.827
	c-0.411,0.112-0.847,0.172-1.298,0.172c-0.317,0-0.625-0.028-0.924-0.087c0.625,1.955,2.442,3.379,4.597,3.42
	c-1.685,1.318-3.804,2.105-6.112,2.105c-0.398,0-0.787-0.021-1.174-0.068c2.18,1.396,4.766,2.211,7.547,2.211
	c9.057,0,14.01-7.501,14.01-14.007c0-0.214-0.006-0.425-0.015-0.636C118.503,6.411,119.341,5.544,119.999,4.557L119.999,4.557z"/>
</svg>
