<?xml version="1.0" encoding="utf-8"?>
<!-- Generator: Adobe Illustrator 15.0.2, SVG Export Plug-In . SVG Version: 6.00 Build 0)  -->
<!DOCTYPE svg PUBLIC "-//W3C//DTD SVG 1.1//EN" "http://www.w3.org/Graphics/SVG/1.1/DTD/svg11.dtd">
<svg version="1.1" id="Calque_1" xmlns="http://www.w3.org/2000/svg" xmlns:xlink="http://www.w3.org/1999/xlink" x="0px" y="0px"
	 width="24px" height="24px" viewBox="0 0 24 24" enable-background="new 0 0 24 24" xml:space="preserve">
<g>
	<path fill="#42B348" d="M14.877,6.584c-0.184,0-0.361,1.119-0.537,1.155l-2.2,3.582l2.153,1.218l-0.742,4.162
		c0.445-0.418,0.939-0.869,1.307-1.168c1.791-1.469,3.643-2.984,3.643-5.331C18.5,8.072,17.012,6.584,14.877,6.584z"/>
	<path fill="#42B348" d="M9.295,12.229l2.183-3.548c-0.601-0.506-1.426-2.097-2.354-2.097c-2.133,0-3.624,1.487-3.624,3.617
		c0,2.347,1.85,3.861,3.641,5.328c0.604,0.496,1.56,1.404,2.059,1.887l0.666-3.732L9.295,12.229z"/>
</g>
</svg>
