<?xml version="1.0" encoding="utf-8"?>
<!-- Generator: Adobe Illustrator 15.0.2, SVG Export Plug-In . SVG Version: 6.00 Build 0)  -->
<!DOCTYPE svg PUBLIC "-//W3C//DTD SVG 1.1//EN" "http://www.w3.org/Graphics/SVG/1.1/DTD/svg11.dtd">
<svg version="1.1" id="Calque_1" xmlns="http://www.w3.org/2000/svg" xmlns:xlink="http://www.w3.org/1999/xlink" x="0px" y="0px"
	 width="24px" height="24px" viewBox="0 0 24 24" enable-background="new 0 0 24 24" xml:space="preserve">
<g>
	<path fill="#42B348" d="M12.536,13.362c0.067,0.228,0.106,0.459,0.11,0.695c0.006,0.235-0.018,0.467-0.069,0.693
		c-0.054,0.225-0.138,0.443-0.255,0.65c-0.114,0.211-0.258,0.402-0.432,0.574l-1.773,1.773c-0.256,0.257-0.547,0.447-0.872,0.57
		c-0.324,0.125-0.658,0.187-1.003,0.178c-0.346-0.008-0.684-0.079-1.016-0.215c-0.33-0.137-0.631-0.34-0.904-0.611
		c-0.268-0.268-0.471-0.568-0.606-0.898c-0.137-0.332-0.209-0.67-0.215-1.014c-0.007-0.344,0.052-0.677,0.175-1.004
		c0.124-0.326,0.314-0.613,0.572-0.873l1.771-1.771c0.355-0.354,0.766-0.586,1.228-0.694s0.926-0.092,1.392,0.049L7.232,14.87
		c-0.125,0.126-0.215,0.267-0.271,0.424c-0.057,0.161-0.083,0.324-0.083,0.49c0.003,0.169,0.037,0.334,0.106,0.496
		c0.068,0.162,0.166,0.309,0.293,0.437c0.133,0.134,0.279,0.233,0.443,0.304c0.161,0.067,0.326,0.102,0.497,0.106
		c0.171,0.004,0.335-0.022,0.491-0.084s0.296-0.149,0.422-0.274L12.536,13.362z M8.91,15.086c-0.079-0.078-0.141-0.172-0.182-0.272
		c-0.041-0.1-0.062-0.205-0.062-0.311c0-0.109,0.019-0.208,0.058-0.309c0.037-0.098,0.096-0.188,0.174-0.267L13.92,8.91
		c0.163-0.164,0.354-0.244,0.577-0.239c0.224,0.004,0.417,0.087,0.578,0.25c0.17,0.168,0.254,0.364,0.253,0.581
		c-0.002,0.216-0.083,0.406-0.247,0.57l-5.021,5.02c-0.158,0.159-0.347,0.238-0.566,0.245C9.273,15.34,9.08,15.256,8.91,15.086z
		 M13.874,6.258c0.257-0.256,0.55-0.448,0.875-0.574c0.326-0.127,0.661-0.188,1.009-0.182c0.346,0.006,0.686,0.077,1.016,0.212
		c0.334,0.137,0.635,0.338,0.902,0.606c0.271,0.272,0.475,0.575,0.611,0.907c0.136,0.332,0.208,0.672,0.213,1.017
		c0.006,0.347-0.057,0.68-0.184,1.008c-0.125,0.327-0.317,0.618-0.573,0.875l-1.769,1.767c-0.174,0.172-0.363,0.32-0.574,0.433
		c-0.209,0.117-0.428,0.199-0.656,0.255c-0.229,0.054-0.461,0.078-0.696,0.07c-0.235-0.006-0.468-0.041-0.694-0.107l3.406-3.404
		c0.124-0.124,0.217-0.264,0.273-0.421c0.06-0.157,0.086-0.319,0.083-0.49c-0.005-0.17-0.039-0.336-0.107-0.499
		c-0.067-0.163-0.167-0.311-0.3-0.441c-0.128-0.129-0.273-0.227-0.438-0.296c-0.164-0.068-0.328-0.102-0.496-0.104
		c-0.168,0-0.332,0.025-0.49,0.083c-0.159,0.055-0.301,0.147-0.424,0.272l-3.408,3.407c-0.14-0.465-0.154-0.93-0.043-1.397
		c0.112-0.465,0.343-0.875,0.694-1.226L13.874,6.258L13.874,6.258z"/>
</g>
</svg>
