<?xml version="1.0" encoding="utf-8"?>
<!-- Generator: Adobe Illustrator 15.0.2, SVG Export Plug-In . SVG Version: 6.00 Build 0)  -->
<!DOCTYPE svg PUBLIC "-//W3C//DTD SVG 1.1//EN" "http://www.w3.org/Graphics/SVG/1.1/DTD/svg11.dtd">
<svg version="1.1" id="Calque_1" xmlns="http://www.w3.org/2000/svg" xmlns:xlink="http://www.w3.org/1999/xlink" x="0px" y="0px"
	 width="160px" height="34px" viewBox="0 0 160 34" enable-background="new 0 0 160 34" xml:space="preserve">
<rect fill="none" width="160" height="34"/>
<g opacity="0.25">
	<path fill="#FFFBFF" d="M79.999,9.979c-2.591,0-4.69,2.1-4.69,4.689c0,2.592,2.101,4.689,4.69,4.689c2.592,0,4.69-2.104,4.69-4.689
		S82.591,9.979,79.999,9.979z M80.229,18.383c-1.397,0-2.628-0.918-3.346-2.308h6.689C82.855,17.464,81.627,18.383,80.229,18.383z"
		/>
	<path fill="#FFFBFF" d="M82.83,19.968c-0.844,0.452-1.809,0.712-2.831,0.712c-1.022,0-1.985-0.259-2.83-0.712
		c-1.821,0.479-3.251,1.613-3.905,4.056h13.472C86.082,21.581,84.654,20.445,82.83,19.968z"/>
</g>
<g>
	<path fill="#FFFBFF" d="M111.999,9.979c-2.591,0-4.69,2.1-4.69,4.689c0,2.592,2.104,4.689,4.69,4.689
		c2.592,0,4.69-2.104,4.69-4.689S114.591,9.979,111.999,9.979z M112.229,18.383c-1.396,0-2.629-0.918-3.346-2.308h6.689
		C114.855,17.464,113.627,18.383,112.229,18.383z"/>
	<path fill="#FFFBFF" d="M114.83,19.968c-0.844,0.452-1.809,0.712-2.831,0.712s-1.985-0.259-2.83-0.712
		c-1.821,0.479-3.251,1.613-3.905,4.056h13.473C118.082,21.581,116.654,20.445,114.83,19.968z"/>
</g>
<g>
	<path fill="#FFFBFF" d="M47.999,9.979c-2.591,0-4.69,2.1-4.69,4.688c0,2.592,2.102,4.688,4.69,4.688c2.592,0,4.69-2.104,4.69-4.688
		S50.591,9.979,47.999,9.979z M48.228,18.382c-1.396,0-2.628-0.919-3.345-2.308h6.69C50.854,17.463,49.627,18.382,48.228,18.382z"/>
	<path fill="#FFFBFF" d="M50.83,19.967c-0.846,0.452-1.811,0.713-2.831,0.713c-1.022,0-1.986-0.26-2.83-0.713
		c-1.822,0.479-3.251,1.613-3.905,4.057h13.472C54.082,21.58,52.654,20.443,50.83,19.967z"/>
</g>
<g opacity="0.5">
	<path fill="#FFFBFF" d="M15.999,9.979c-2.591,0-4.69,2.1-4.69,4.688c0,2.592,2.102,4.688,4.69,4.688c2.592,0,4.69-2.104,4.69-4.688
		S18.591,9.979,15.999,9.979z M16.228,18.382c-1.396,0-2.628-0.919-3.345-2.308h6.69C18.854,17.463,17.627,18.382,16.228,18.382z"/>
	<path fill="#FFFBFF" d="M18.83,19.967c-0.846,0.452-1.811,0.713-2.831,0.713c-1.022,0-1.986-0.26-2.83-0.713
		c-1.822,0.479-3.251,1.613-3.905,4.057h13.472C22.082,21.58,20.654,20.443,18.83,19.967z"/>
</g>
<g>
	<path fill="#FFFBFF" d="M143.999,9.979c-2.591,0-4.69,2.1-4.69,4.688c0,2.592,2.104,4.688,4.69,4.688
		c2.592,0,4.69-2.104,4.69-4.688S146.591,9.979,143.999,9.979z M144.229,18.382c-1.396,0-2.629-0.919-3.346-2.308h6.689
		C146.854,17.463,145.627,18.382,144.229,18.382z"/>
	<path fill="#FFFBFF" d="M146.83,19.967c-0.846,0.452-1.811,0.713-2.831,0.713c-1.022,0-1.985-0.26-2.83-0.713
		c-1.821,0.479-3.251,1.613-3.905,4.057h13.473C150.082,21.58,148.654,20.443,146.83,19.967z"/>
</g>
</svg>
