<?xml version="1.0" encoding="utf-8"?>
<!-- Generator: Adobe Illustrator 15.0.2, SVG Export Plug-In . SVG Version: 6.00 Build 0)  -->
<!DOCTYPE svg PUBLIC "-//W3C//DTD SVG 1.1//EN" "http://www.w3.org/Graphics/SVG/1.1/DTD/svg11.dtd">
<svg version="1.1" id="Calque_1" xmlns="http://www.w3.org/2000/svg" xmlns:xlink="http://www.w3.org/1999/xlink" x="0px" y="0px"
	 width="24px" height="24px" viewBox="0 0 24 24" enable-background="new 0 0 24 24" xml:space="preserve">
<path fill="#9595A4" d="M18.952,9.462c-1.472,0-2.941,0-4.412,0c0-1.471,0-2.942,0-4.413c0-0.571-0.478-1.048-1.048-1.048
	c-0.995,0-1.989,0-2.984,0c-0.571,0-1.048,0.477-1.048,1.048c0,1.471,0,2.942,0,4.413c-1.471,0-2.941,0-4.412,0
	C4.477,9.462,4,9.939,4,10.51c0,0.994,0,1.989,0,2.983c0,0.571,0.477,1.048,1.048,1.048c1.471,0,2.941,0,4.412,0
	c0,1.471,0,2.939,0,4.41c0,0.57,0.477,1.048,1.048,1.048c0.995,0,1.989,0,2.984,0c0.57,0,1.048-0.478,1.048-1.048
	c0-1.471,0-2.939,0-4.41c1.471,0,2.94,0,4.412,0c0.571,0,1.048-0.477,1.048-1.048c0-0.994,0-1.989,0-2.983
	C20,9.939,19.523,9.462,18.952,9.462z"/>
</svg>
