<?xml version="1.0" encoding="utf-8"?>
<!-- Generator: Adobe Illustrator 15.0.2, SVG Export Plug-In . SVG Version: 6.00 Build 0)  -->
<!DOCTYPE svg PUBLIC "-//W3C//DTD SVG 1.1//EN" "http://www.w3.org/Graphics/SVG/1.1/DTD/svg11.dtd">
<svg version="1.1" id="Calque_1" xmlns="http://www.w3.org/2000/svg" xmlns:xlink="http://www.w3.org/1999/xlink" x="0px" y="0px"
	 width="24px" height="24px" viewBox="0 0 24 24" enable-background="new 0 0 24 24" xml:space="preserve">
<g>
	<path fill="#808090" d="M5.126,6.398l6.305,6.307c0.151,0.15,0.351,0.234,0.569,0.234s0.419-0.084,0.568-0.234l6.308-6.307H5.126z"
		/>
	<g>
		<path fill="#808090" d="M14.412,12.014l-1.254,1.254c-0.313,0.312-0.722,0.467-1.132,0.467c-0.41,0-0.819-0.155-1.131-0.467
			l-1.28-1.279l-5.279,5.277c-0.035,0.037-0.07,0.063-0.104,0.094c0.146,0.148,0.349,0.242,0.572,0.242h14.394
			c0.225,0,0.427-0.095,0.573-0.242c-0.037-0.029-0.07-0.057-0.104-0.094L14.412,12.014z"/>
	</g>
	<g>
		<path fill="#808090" d="M4.362,6.733C4.321,6.692,4.293,6.653,4.26,6.614C4.101,6.762,4,6.97,4,7.201v9.273l5.051-5.052
			L4.362,6.733z"/>
		<path fill="#808090" d="M19.691,6.733l-4.717,4.716L20,16.475V7.201c0-0.218-0.089-0.415-0.229-0.561
			C19.743,6.671,19.723,6.702,19.691,6.733z"/>
	</g>
</g>
</svg>
