<?xml version="1.0" encoding="utf-8"?>
<!-- Generator: Adobe Illustrator 15.0.2, SVG Export Plug-In . SVG Version: 6.00 Build 0)  -->
<!DOCTYPE svg PUBLIC "-//W3C//DTD SVG 1.1//EN" "http://www.w3.org/Graphics/SVG/1.1/DTD/svg11.dtd">
<svg version="1.1" id="Calque_1" xmlns="http://www.w3.org/2000/svg" xmlns:xlink="http://www.w3.org/1999/xlink" x="0px" y="0px"
	 width="80px" height="24px" viewBox="0 0 80 24" enable-background="new 0 0 80 24" xml:space="preserve">
<path fill="#EEEBE8" d="M63.25,0h8.125H3C1.35,0,0,1.35,0,3v18c0,1.65,1.35,3,3,3h60.25h5.125h3L80,12L71.375,0"/>
<path opacity="0.15" enable-background="new    " d="M63.25,0h8.125H3C1.35,0,0,1.35,0,3v17c0,1.65,1.35,3,3,3h60.25h5.125h3L80,12
	L71.375,0"/>
<linearGradient id="SVGID_1_" gradientUnits="userSpaceOnUse" x1="412.5605" y1="987.5596" x2="412.5605" y2="1010.5596" gradientTransform="matrix(-1 0 0 1 452.5605 -987.5596)">
	<stop  offset="0" style="stop-color:#FFFFFE;stop-opacity:0.35"/>
	<stop  offset="0.5" style="stop-color:#FFFFFE;stop-opacity:0.15"/>
	<stop  offset="0.5" style="stop-color:#FFFFFE;stop-opacity:0"/>
	<stop  offset="1" style="stop-color:#FFFFFE;stop-opacity:0.05"/>
</linearGradient>
<path fill="url(#SVGID_1_)" d="M63.25,0h8.125H3C1.35,0,0,1.35,0,3v17c0,1.65,1.35,3,3,3h60.25h5.125h3L80,12L71.375,0"/>
<linearGradient id="SVGID_2_" gradientUnits="userSpaceOnUse" x1="412.5605" y1="987.5596" x2="412.5605" y2="1010.5596" gradientTransform="matrix(-1 0 0 1 452.5605 -987.5596)">
	<stop  offset="0" style="stop-color:#000000;stop-opacity:0.35"/>
	<stop  offset="1" style="stop-color:#000000;stop-opacity:0.15"/>
</linearGradient>
<path fill="url(#SVGID_2_)" d="M3,1h60.25h7.611l7.907,11l-7.907,10h-2.486H63.25H3c-1.104,0-2-0.896-2-2V3C1,1.897,1.896,1,3,1
	 M3,0C1.35,0,0,1.35,0,3v17c0,1.65,1.35,3,3,3h60.25h5.125h3L80,12L71.375,0H63.25H3L3,0z"/>
</svg>
