<?xml version="1.0" encoding="utf-8"?>
<!-- Generator: Adobe Illustrator 13.0.2, SVG Export Plug-In . SVG Version: 6.00 Build 14948)  -->
<!DOCTYPE svg PUBLIC "-//W3C//DTD SVG 1.1//EN" "http://www.w3.org/Graphics/SVG/1.1/DTD/svg11.dtd">
<svg version="1.1" id="Calque_1" xmlns="http://www.w3.org/2000/svg" xmlns:xlink="http://www.w3.org/1999/xlink" x="0px" y="0px"
	 width="20px" height="24px" viewBox="0 0 20 24" enable-background="new 0 0 20 24" xml:space="preserve">
<g>
	<linearGradient id="SVGID_1_" gradientUnits="userSpaceOnUse" x1="10" y1="0.5" x2="10" y2="23.5">
		<stop  offset="0" style="stop-color:#EEEBE8"/>
		<stop  offset="0.93" style="stop-color:#DFFFEF"/>
		<stop  offset="1" style="stop-color:#FFFFFF"/>
	</linearGradient>
	<path fill="url(#SVGID_1_)" d="M16.965,23.5H3.034c-1.397,0-2.534-1.136-2.534-2.534V3.034C0.5,1.637,1.637,0.5,3.034,0.5h13.931
		c1.397,0,2.534,1.137,2.534,2.534v17.932C19.499,22.364,18.362,23.5,16.965,23.5L16.965,23.5z"/>
	<path fill="#C0C0C0" d="M16.965,0C18.641,0,20,1.358,20,3.035v17.931C20,22.643,18.641,24,16.965,24H3.035
		C1.358,24,0,22.643,0,20.966V3.035C0,1.358,1.358,0,3.035,0H16.965 M16.965,1H3.035C1.913,1,1,1.913,1,3.035v17.931
		C1,22.088,1.913,23,3.035,23h13.93C18.087,23,19,22.088,19,20.966V3.035C19,1.913,18.087,1,16.965,1L16.965,1z"/>
</g>
</svg>
