<?xml version="1.0" encoding="utf-8"?>
<!-- Generator: Adobe Illustrator 15.0.2, SVG Export Plug-In . SVG Version: 6.00 Build 0)  -->
<!DOCTYPE svg PUBLIC "-//W3C//DTD SVG 1.1//EN" "http://www.w3.org/Graphics/SVG/1.1/DTD/svg11.dtd">
<svg version="1.1" id="Calque_1" xmlns="http://www.w3.org/2000/svg" xmlns:xlink="http://www.w3.org/1999/xlink" x="0px" y="0px"
	 width="24px" height="24px" viewBox="0 0 24 24" enable-background="new 0 0 24 24" xml:space="preserve">
<g>
	<path fill="#0000FF" d="M8.516,18.807L5.5,17.354V8.229l3.016,1.438V18.807z M8.516,8.244H7.792c0-0.425,0.063-0.82,0.192-1.193
		C8.113,6.679,8.289,6.355,8.51,6.08c0.223-0.274,0.481-0.491,0.777-0.649C9.584,5.272,9.9,5.193,10.236,5.193
		c0.359,0,0.695,0.082,1.007,0.244c0.312,0.163,0.582,0.413,0.81,0.749L11.55,6.705c-0.17-0.248-0.374-0.445-0.61-0.593
		c-0.235-0.146-0.471-0.219-0.703-0.219c-0.238,0-0.463,0.063-0.672,0.184c-0.209,0.122-0.392,0.289-0.547,0.5
		C8.861,6.789,8.738,7.039,8.648,7.326C8.561,7.61,8.516,7.919,8.516,8.244z M18.5,18.807H9.033V9.916H18.5V18.807z M16.215,9.143
		H15.5c0-0.314-0.045-0.616-0.135-0.896c-0.09-0.282-0.213-0.527-0.369-0.737c-0.155-0.209-0.338-0.374-0.547-0.496
		C14.24,6.892,14.016,6.83,13.777,6.83s-0.463,0.062-0.672,0.183c-0.209,0.122-0.394,0.287-0.547,0.496
		c-0.158,0.21-0.281,0.455-0.371,0.737c-0.09,0.28-0.135,0.582-0.135,0.896H11.33c0-0.414,0.064-0.805,0.193-1.172
		s0.304-0.688,0.525-0.96c0.221-0.271,0.479-0.487,0.777-0.646c0.297-0.158,0.611-0.236,0.947-0.236s0.652,0.079,0.949,0.236
		s0.555,0.372,0.773,0.646c0.218,0.273,0.393,0.593,0.521,0.96S16.215,8.729,16.215,9.143z"/>
</g>
</svg>
