<?xml version="1.0" encoding="utf-8"?>
<!-- Generator: Adobe Illustrator 15.0.2, SVG Export Plug-In . SVG Version: 6.00 Build 0)  -->
<!DOCTYPE svg PUBLIC "-//W3C//DTD SVG 1.1//EN" "http://www.w3.org/Graphics/SVG/1.1/DTD/svg11.dtd">
<svg version="1.1" id="Calque_1" xmlns="http://www.w3.org/2000/svg" xmlns:xlink="http://www.w3.org/1999/xlink" x="0px" y="0px"
	 width="24px" height="24px" viewBox="0 0 24 24" enable-background="new 0 0 24 24" xml:space="preserve">
<g>
	<path fill="#9595A4" d="M9.536,13.756c-0.609,0-1.182-0.236-1.611-0.665l-2.287-2.288c-0.888-0.888-0.888-2.332,0-3.221l1.931-1.93
		c0.428-0.43,1-0.666,1.609-0.666c0.61,0,1.182,0.236,1.611,0.666l2.288,2.287c0.888,0.89,0.888,2.333,0,3.222l-1.931,1.931
		C10.718,13.52,10.146,13.756,9.536,13.756z M9.179,6.796c-0.072,0-0.212,0.019-0.33,0.136L6.918,8.86
		c-0.18,0.18-0.18,0.483,0,0.663l2.286,2.285c0.118,0.119,0.259,0.136,0.331,0.136s0.213-0.017,0.331-0.136l1.93-1.929
		c0.179-0.18,0.179-0.483,0-0.661L9.51,6.932C9.393,6.814,9.252,6.796,9.179,6.796z"/>
	<path fill="#9595A4" d="M14.822,19.014c-0.61,0-1.183-0.236-1.611-0.666l-2.287-2.287c-0.888-0.889-0.888-2.332,0-3.221
		l1.931-1.931c0.429-0.429,1-0.665,1.61-0.665c0.609,0,1.182,0.236,1.611,0.665l2.287,2.288c0.887,0.888,0.887,2.332,0,3.221
		l-1.932,1.93C16.002,18.777,15.431,19.014,14.822,19.014z M14.464,12.054c-0.072,0-0.212,0.017-0.33,0.136l-1.931,1.93
		c-0.179,0.18-0.179,0.482,0,0.662l2.288,2.285c0.117,0.119,0.256,0.137,0.332,0.137c0.071,0,0.211-0.018,0.33-0.137l1.93-1.928
		c0.18-0.182,0.18-0.484,0-0.664l-2.286-2.286C14.678,12.07,14.535,12.054,14.464,12.054z"/>
	<g>
		<path fill="#9595A4" d="M14.103,14.34c-0.297,0.299-0.782,0.299-1.079,0L9.78,11.094c-0.297-0.297-0.297-0.783,0-1.079l0.23-0.23
			c0.297-0.297,0.783-0.297,1.079,0l3.245,3.243c0.297,0.298,0.297,0.783,0,1.08L14.103,14.34z"/>
	</g>
</g>
</svg>
