<?xml version="1.0" encoding="utf-8"?>
<!-- Generator: Adobe Illustrator 15.0.2, SVG Export Plug-In . SVG Version: 6.00 Build 0)  -->
<!DOCTYPE svg PUBLIC "-//W3C//DTD SVG 1.1//EN" "http://www.w3.org/Graphics/SVG/1.1/DTD/svg11.dtd">
<svg version="1.1" id="Calque_1" xmlns="http://www.w3.org/2000/svg" xmlns:xlink="http://www.w3.org/1999/xlink" x="0px" y="0px"
	 width="24px" height="24px" viewBox="0 0 24 24" enable-background="new 0 0 24 24" xml:space="preserve">
<g>
	<path fill="#42B348" d="M17.67,6.162c-1.194-0.979-2.021-0.691-2.44-0.287c-0.146,0.142-0.605,0.514-0.943,0.784
		c0.381,0.024,1.146,0.188,1.982,1.019c0.834,0.826,0.994,1.533,1.002,1.927C17.556,9.239,18,8.664,18.069,8.594
		C18.526,8.126,18.862,7.141,17.67,6.162z"/>
	<path fill="#42B348" d="M12.884,8.136L11.787,9.1L7.72,13.208l-0.339,0.603l-0.585,1.467l0,0L5.511,18.5l4.67-1.939l0.59-0.33
		l1.481-1.494l0,0l2.587-2.608l0.909-1.093c0,0,0.146-0.766-0.939-1.854C13.735,8.108,12.884,8.136,12.884,8.136z"/>
</g>
</svg>
