<?xml version="1.0" encoding="utf-8"?>
<!-- Generator: Adobe Illustrator 15.0.2, SVG Export Plug-In . SVG Version: 6.00 Build 0)  -->
<!DOCTYPE svg PUBLIC "-//W3C//DTD SVG 1.1//EN" "http://www.w3.org/Graphics/SVG/1.1/DTD/svg11.dtd">
<svg version="1.1" id="Calque_1" xmlns="http://www.w3.org/2000/svg" xmlns:xlink="http://www.w3.org/1999/xlink" x="0px" y="0px"
	 width="24px" height="24px" viewBox="0 0 24 24" enable-background="new 0 0 24 24" xml:space="preserve">
<g>
	<path fill="#9595A4" d="M14.334,5.361c-0.182-0.181-0.354-0.336-0.506-0.463c-0.01,0.112-0.016,0.238-0.016,0.377v1.091
		c0,0.402,0.328,0.73,0.73,0.73h1.091c0.14,0,0.265-0.005,0.376-0.014c-0.126-0.152-0.281-0.326-0.462-0.507L14.334,5.361z"/>
	<g>
		<path fill="#9595A4" d="M7.638,19.455h8.723c0.402,0,0.729-0.328,0.729-0.73v-0.363v-1.09c-0.298,0-0.687,0-1.094,0H8.002
			c-0.407,0-0.795,0-1.094,0v1.09v0.363C6.908,19.127,7.235,19.455,7.638,19.455z"/>
		<path fill="#9595A4" d="M16.361,11.451H7.638c-0.403,0-0.73,0.328-0.73,0.73v3.271v1.09c0.299,0,0.688,0,1.094,0h7.996
			c0.406,0,0.796,0,1.094,0v-1.09v-3.271C17.092,11.779,16.766,11.451,16.361,11.451z"/>
	</g>
	<g>
		<path fill="#9595A4" d="M6.185,17.089c0-0.192,0-0.325,0-0.362c0-0.312,0-0.779,0-1.271v-3.271c0-0.268,0.078-0.515,0.205-0.73
			H6.185c-0.705,0-1.459,0.305-1.669,0.516C4.305,12.177,4,12.932,4,13.637v3.635c0,0.401,0.328,0.729,0.73,0.729h1.454
			C6.185,17.646,6.185,17.322,6.185,17.089z"/>
		<path fill="#9595A4" d="M19.484,11.967c-0.211-0.211-0.965-0.516-1.67-0.516h-0.205c0.127,0.216,0.205,0.463,0.205,0.73v3.271
			c0,0.493,0,0.962,0,1.272c0,0.037,0,0.17,0,0.361c0,0.232,0,0.559,0,0.912h1.455c0.401,0,0.729-0.328,0.729-0.729v-3.637
			C20,12.932,19.695,12.177,19.484,11.967z"/>
	</g>
	<g>
		<path fill="#9595A4" d="M16.365,10.728V9.092V7.769c-0.217,0.032-0.463,0.052-0.73,0.052h-1.091c-0.8,0-1.453-0.654-1.453-1.454
			V5.275c0-0.268,0.021-0.515,0.052-0.73h-1.324H8.365c-0.403,0-0.73,0.328-0.73,0.73v5.452L16.365,10.728L16.365,10.728z"/>
	</g>
</g>
</svg>
