<?xml version="1.0" encoding="utf-8"?>
<!-- Generator: Adobe Illustrator 15.0.2, SVG Export Plug-In . SVG Version: 6.00 Build 0)  -->
<!DOCTYPE svg PUBLIC "-//W3C//DTD SVG 1.1//EN" "http://www.w3.org/Graphics/SVG/1.1/DTD/svg11.dtd">
<svg version="1.1" id="Calque_1" xmlns="http://www.w3.org/2000/svg" xmlns:xlink="http://www.w3.org/1999/xlink" x="0px" y="0px"
	 width="24px" height="24px" viewBox="28 0 24 24" enable-background="new 28 0 24 24" xml:space="preserve">
<g>
	<path fill="#808090" d="M36.515,18.807L33.5,17.354V8.229l3.015,1.438V18.807z M36.515,8.244h-0.723
		c0-0.424,0.064-0.82,0.193-1.193c0.129-0.372,0.304-0.695,0.525-0.971c0.222-0.274,0.481-0.491,0.777-0.649
		c0.297-0.158,0.613-0.237,0.949-0.237c0.36,0,0.696,0.082,1.007,0.244c0.312,0.163,0.582,0.413,0.81,0.749L39.55,6.705
		c-0.17-0.248-0.374-0.445-0.61-0.592c-0.236-0.146-0.471-0.219-0.704-0.219c-0.238,0-0.462,0.062-0.671,0.183
		c-0.209,0.122-0.392,0.289-0.548,0.5c-0.155,0.212-0.278,0.462-0.369,0.749C36.56,7.611,36.515,7.919,36.515,8.244z M46.5,18.807
		h-9.467V9.916H46.5V18.807z M44.215,9.143H43.5c0-0.315-0.045-0.616-0.135-0.897c-0.09-0.282-0.213-0.527-0.369-0.737
		c-0.155-0.209-0.338-0.374-0.547-0.496c-0.209-0.121-0.434-0.183-0.672-0.183s-0.463,0.062-0.672,0.183
		c-0.209,0.122-0.393,0.287-0.547,0.496c-0.157,0.21-0.28,0.455-0.37,0.737c-0.09,0.281-0.135,0.582-0.135,0.897h-0.723
		c0-0.414,0.064-0.805,0.193-1.172s0.304-0.688,0.526-0.96c0.221-0.272,0.479-0.487,0.777-0.646
		c0.297-0.158,0.612-0.236,0.948-0.236s0.652,0.079,0.949,0.236c0.297,0.158,0.555,0.373,0.773,0.646
		c0.218,0.273,0.393,0.593,0.521,0.96C44.146,8.338,44.215,8.729,44.215,9.143z"/>
</g>
</svg>
