<?xml version="1.0" encoding="utf-8"?>
<!-- Generator: Adobe Illustrator 15.0.2, SVG Export Plug-In . SVG Version: 6.00 Build 0)  -->
<!DOCTYPE svg PUBLIC "-//W3C//DTD SVG 1.1//EN" "http://www.w3.org/Graphics/SVG/1.1/DTD/svg11.dtd">
<svg version="1.1" id="Calque_1" xmlns="http://www.w3.org/2000/svg" xmlns:xlink="http://www.w3.org/1999/xlink" x="0px" y="0px"
	 width="24px" height="24px" viewBox="0 0 24 24" enable-background="new 0 0 24 24" xml:space="preserve">
<g>
	<path fill="#0000FF" d="M12.536,13.362c0.067,0.228,0.104,0.459,0.11,0.695c0.006,0.235-0.019,0.467-0.069,0.693
		c-0.056,0.225-0.137,0.443-0.254,0.65c-0.115,0.211-0.26,0.402-0.432,0.574l-1.774,1.773c-0.257,0.257-0.548,0.447-0.872,0.57
		c-0.324,0.125-0.658,0.187-1.003,0.178c-0.345-0.008-0.683-0.079-1.015-0.215c-0.333-0.137-0.633-0.34-0.907-0.611
		c-0.268-0.268-0.471-0.568-0.605-0.898c-0.137-0.332-0.209-0.67-0.215-1.014c-0.007-0.344,0.051-0.678,0.175-1.004
		s0.313-0.613,0.572-0.873L8.02,12.11c0.354-0.354,0.765-0.586,1.227-0.694s0.926-0.092,1.393,0.049l-3.406,3.404
		c-0.125,0.126-0.217,0.267-0.273,0.424c-0.058,0.161-0.083,0.324-0.083,0.49c0.003,0.169,0.037,0.334,0.105,0.497
		c0.071,0.162,0.167,0.308,0.295,0.436c0.132,0.133,0.279,0.233,0.441,0.303c0.162,0.068,0.327,0.103,0.498,0.107
		c0.17,0.004,0.334-0.023,0.491-0.084c0.155-0.061,0.296-0.15,0.422-0.275L12.536,13.362z M8.911,15.086
		c-0.079-0.078-0.141-0.172-0.182-0.272c-0.041-0.1-0.062-0.205-0.062-0.311c0-0.109,0.019-0.208,0.058-0.309
		c0.037-0.098,0.096-0.188,0.174-0.267l5.021-5.02c0.163-0.164,0.354-0.244,0.577-0.239c0.224,0.004,0.417,0.087,0.578,0.25
		c0.17,0.168,0.254,0.364,0.253,0.581c-0.002,0.216-0.083,0.406-0.247,0.57l-5.02,5.02c-0.16,0.159-0.348,0.238-0.567,0.245
		C9.274,15.34,9.081,15.256,8.911,15.086z M13.874,6.259c0.257-0.256,0.55-0.448,0.875-0.574c0.326-0.127,0.661-0.188,1.009-0.182
		c0.346,0.006,0.686,0.077,1.016,0.212c0.334,0.137,0.636,0.338,0.902,0.606c0.271,0.272,0.475,0.575,0.611,0.907
		C18.423,7.56,18.495,7.9,18.5,8.245c0.006,0.347-0.057,0.68-0.184,1.008c-0.127,0.327-0.317,0.618-0.573,0.875l-1.771,1.767
		c-0.173,0.172-0.363,0.32-0.574,0.433c-0.209,0.117-0.428,0.2-0.654,0.257c-0.229,0.055-0.461,0.078-0.696,0.072
		s-0.468-0.043-0.694-0.11l3.406-3.405c0.124-0.124,0.217-0.264,0.273-0.421c0.06-0.157,0.086-0.319,0.083-0.49
		c-0.005-0.17-0.039-0.336-0.107-0.499c-0.067-0.162-0.167-0.31-0.3-0.441c-0.128-0.129-0.273-0.227-0.438-0.296
		c-0.164-0.068-0.328-0.102-0.498-0.104c-0.168,0-0.33,0.025-0.488,0.083c-0.159,0.055-0.301,0.147-0.426,0.272l-3.406,3.406
		c-0.141-0.465-0.154-0.93-0.043-1.397c0.111-0.465,0.343-0.875,0.695-1.226L13.874,6.259L13.874,6.259z"/>
</g>
</svg>
