<?xml version="1.0" encoding="utf-8"?>
<!-- Generator: Adobe Illustrator 15.0.0, SVG Export Plug-In . SVG Version: 6.00 Build 0)  -->
<!DOCTYPE svg PUBLIC "-//W3C//DTD SVG 1.1//EN" "http://www.w3.org/Graphics/SVG/1.1/DTD/svg11.dtd" [
	<!ENTITY ns_extend "http://ns.adobe.com/Extensibility/1.0/">
	<!ENTITY ns_ai "http://ns.adobe.com/AdobeIllustrator/10.0/">
	<!ENTITY ns_graphs "http://ns.adobe.com/Graphs/1.0/">
	<!ENTITY ns_vars "http://ns.adobe.com/Variables/1.0/">
	<!ENTITY ns_imrep "http://ns.adobe.com/ImageReplacement/1.0/">
	<!ENTITY ns_sfw "http://ns.adobe.com/SaveForWeb/1.0/">
	<!ENTITY ns_custom "http://ns.adobe.com/GenericCustomNamespace/1.0/">
	<!ENTITY ns_adobe_xpath "http://ns.adobe.com/XPath/1.0/">
]>
<svg version="1.1" id="Facebook_1_" xmlns:x="&ns_extend;" xmlns:i="&ns_ai;" xmlns:graph="&ns_graphs;"
	 xmlns="http://www.w3.org/2000/svg" xmlns:xlink="http://www.w3.org/1999/xlink" x="0px" y="0px" width="120px" height="24px"
	 viewBox="0 0 120 24" enable-background="new 0 0 120 24" xml:space="preserve">
<metadata>
	<sfw  xmlns="&ns_sfw;">
		<slices></slices>
		<sliceSourceBounds  height="24" width="107.156" y="0.5" x="-6.077" bottomLeftOrigin="true"></sliceSourceBounds>
	</sfw>
</metadata>
<path id="Facebook" fill="#2D2D2D" d="M17.576,7.771h-3.801v-2.49c0-0.935,0.622-1.155,1.059-1.155h2.678V0.014L13.818,0
	C9.723,0,8.793,3.067,8.793,5.031v2.74h-2.37v4.236h2.37V24h4.984V12.01h3.363L17.576,7.771L17.576,7.771z"/>
<path id="Facebook_2_" fill="#35528E" d="M41.576,7.771h-3.801v-2.49c0-0.935,0.621-1.155,1.059-1.155h2.678V0.014L37.818,0
	c-4.096,0-5.025,3.067-5.025,5.031v2.74h-2.369v4.236h2.369V24h4.984V12.01h3.363L41.576,7.771L41.576,7.771z"/>
<path id="Facebook_6_" opacity="0.35" fill="#2D2D2D" d="M65.578,7.771h-3.802v-2.49c0-0.935,0.623-1.155,1.06-1.155h2.678V0.014
	L61.819,0c-4.094,0-5.024,3.067-5.024,5.031v2.74h-2.37v4.236h2.37V24h4.983V12.01h3.364L65.578,7.771L65.578,7.771z"/>
<path id="Facebook_5_" fill="#35528E" d="M89.578,7.771h-3.801v-2.49c0-0.935,0.621-1.155,1.059-1.155h2.678V0.014L85.82,0
	c-4.096,0-5.025,3.067-5.025,5.031v2.74h-2.369v4.236h2.369V24h4.984V12.01h3.363L89.578,7.771L89.578,7.771z"/>
<path id="Facebook_7_" fill="#35528E" d="M113.579,7.771h-3.801v-2.49c0-0.935,0.621-1.155,1.059-1.155h2.678V0.014L109.821,0
	c-4.096,0-5.025,3.067-5.025,5.031v2.74h-2.369v4.236h2.369V24h4.984V12.01h3.363L113.579,7.771L113.579,7.771z"/>
</svg>
