<?xml version="1.0" encoding="utf-8"?>
<!-- Generator: Adobe Illustrator 15.0.0, SVG Export Plug-In . SVG Version: 6.00 Build 0)  -->
<!DOCTYPE svg PUBLIC "-//W3C//DTD SVG 1.1//EN" "http://www.w3.org/Graphics/SVG/1.1/DTD/svg11.dtd">
<svg version="1.1" id="Calque_1" xmlns="http://www.w3.org/2000/svg" xmlns:xlink="http://www.w3.org/1999/xlink" x="0px" y="0px"
	 width="80px" height="24px" viewBox="0 0 80 24" enable-background="new 0 0 80 24" xml:space="preserve">
<rect fill="#D3117E" width="80" height="24"/>
<g>
	<path fill="#2AEDFF" d="M80,0H0c0,0,1,0,1,12S0,24,0,24h80c0,0-1,0-1-12S80,0,80,0L80,0z"/>
</g>
<g>
	<path fill="#E8C6B0" d="M0.5,0.5c0,0,0.987,0,0.987,11.5S0.5,23.5,0.5,23.5h79c0,0-0.986,0-0.986-11.5S79.5,0.5,79.5,0.5H0.5z"/>
</g>
<g>
	
		<linearGradient id="SVGID_1_" gradientUnits="userSpaceOnUse" x1="420.96" y1="-261.5996" x2="420.96" y2="-284.5996" gradientTransform="matrix(1 0 0 -1 -380.96 -260.5996)">
		<stop  offset="0" style="stop-color:#FFFFFE;stop-opacity:0"/>
		<stop  offset="0.5" style="stop-color:#FFFFFE;stop-opacity:0.25"/>
		<stop  offset="1" style="stop-color:#FFFFFE;stop-opacity:0"/>
	</linearGradient>
	<path fill="url(#SVGID_1_)" d="M0.5,1c0,0,0.987,0,0.987,11.5S0.5,24,0.5,24h79c0,0-0.986,0-0.986-11.5S79.5,1,79.5,1H0.5z"/>
</g>
</svg>
