<?xml version="1.0" encoding="utf-8"?>
<!-- Generator: Adobe Illustrator 15.0.2, SVG Export Plug-In . SVG Version: 6.00 Build 0)  -->
<!DOCTYPE svg PUBLIC "-//W3C//DTD SVG 1.1//EN" "http://www.w3.org/Graphics/SVG/1.1/DTD/svg11.dtd">
<svg version="1.1" id="Calque_1" xmlns="http://www.w3.org/2000/svg" xmlns:xlink="http://www.w3.org/1999/xlink" x="0px" y="0px"
	 width="80px" height="24px" viewBox="0 0 80 24" enable-background="new 0 0 80 24" xml:space="preserve">
<path fill="#D3117E" d="M3,23.75c-1.516,0-2.75-1.232-2.75-2.75V3c0-1.516,1.234-2.75,2.75-2.75h74c1.518,0,2.75,1.234,2.75,2.75v18
	c0,1.518-1.232,2.75-2.75,2.75H3z"/>
<path fill="#2AEDFF" d="M77,0.5c1.379,0,2.5,1.122,2.5,2.5v18c0,1.379-1.121,2.5-2.5,2.5H3c-1.378,0-2.5-1.121-2.5-2.5V3
	c0-1.378,1.122-2.5,2.5-2.5H77 M77,0H3C1.35,0,0,1.35,0,3v18c0,1.65,1.35,3,3,3h74c1.65,0,3-1.35,3-3V3C80,1.35,78.65,0,77,0L77,0z"
	/>
<linearGradient id="SVGID_1_" gradientUnits="userSpaceOnUse" x1="187.5996" y1="2604.0391" x2="187.5996" y2="2583.0391" gradientTransform="matrix(1 0 0 -1 -147.6001 2604.0391)">
	<stop  offset="0" style="stop-color:#E8C6B0"/>
	<stop  offset="1" style="stop-color:#EEEBE8"/>
</linearGradient>
<path fill="url(#SVGID_1_)" d="M80,19c0,1.1-0.9,2-2,2H2c-1.1,0-2-0.9-2-2V2c0-1.1,0.9-2,2-2h76c1.1,0,2,0.9,2,2V19z"/>
<g>
	<path fill="#E8C6B0" d="M78,1c0.553,0,1,0.449,1,1v17c0,0.553-0.447,1-1,1H2c-0.551,0-1-0.447-1-1V2c0-0.551,0.449-1,1-1H78 M78,0
		H2C0.9,0,0,0.9,0,2v17c0,1.1,0.9,2,2,2h76c1.1,0,2-0.9,2-2V2C80,0.9,79.1,0,78,0L78,0z"/>
</g>
<g>
	<path fill="#2AEDFF" d="M78,0.5c0.827,0,1.5,0.673,1.5,1.5v17c0,0.827-0.673,1.5-1.5,1.5H2c-0.827,0-1.5-0.673-1.5-1.5V2
		c0-0.827,0.673-1.5,1.5-1.5H78 M78,0H2C0.9,0,0,0.9,0,2v17c0,1.1,0.9,2,2,2h76c1.1,0,2-0.9,2-2V2C80,0.9,79.1,0,78,0L78,0z"/>
</g>
</svg>
