<?xml version="1.0" encoding="utf-8"?>
<!-- Generator: Adobe Illustrator 15.0.2, SVG Export Plug-In . SVG Version: 6.00 Build 0)  -->
<!DOCTYPE svg PUBLIC "-//W3C//DTD SVG 1.1//EN" "http://www.w3.org/Graphics/SVG/1.1/DTD/svg11.dtd">
<svg version="1.1" id="Calque_1" xmlns="http://www.w3.org/2000/svg" xmlns:xlink="http://www.w3.org/1999/xlink" x="0px" y="0px"
	 width="24px" height="24px" viewBox="0 0 24 24" enable-background="new 0 0 24 24" xml:space="preserve">
<rect x="9.5" y="15" fill="#42B348" width="5" height="1"/>
<path fill="#42B348" d="M17,9.5h-0.51V7c0-0.827-0.674-1.5-1.5-1.5h-6c-0.827,0-1.5,0.673-1.5,1.5v2.5H7c-0.828,0-1.5,0.672-1.5,1.5
	v3c0,0.828,0.672,1.5,1.5,1.5h0.49V17c0,0.827,0.673,1.5,1.5,1.5h6c0.826,0,1.5-0.673,1.5-1.5v-1.5H17c0.828,0,1.5-0.672,1.5-1.5v-3
	C18.5,10.172,17.828,9.5,17,9.5z M8.49,7c0-0.275,0.224-0.5,0.5-0.5H9h5.99H15c0.275,0,0.5,0.225,0.5,0.5v2.5h-0.01H8.5H8.49V7z
	 M15.5,17c0,0.275-0.225,0.5-0.5,0.5h-0.01H9H8.99c-0.276,0-0.5-0.225-0.5-0.5v-4H8.5h6.99h0.01V17z M16.26,12
	c-0.002,0-0.003-0.001-0.005-0.001S16.252,12,16.25,12c-0.414,0-0.75-0.336-0.75-0.75s0.336-0.75,0.75-0.75
	c0.002,0,0.003,0.001,0.005,0.001S16.258,10.5,16.26,10.5c0.414,0,0.75,0.336,0.75,0.75S16.674,12,16.26,12z"/>
</svg>
