<?xml version="1.0" encoding="utf-8"?>
<!-- Generator: Adobe Illustrator 15.0.0, SVG Export Plug-In . SVG Version: 6.00 Build 0)  -->
<!DOCTYPE svg PUBLIC "-//W3C//DTD SVG 1.1//EN" "http://www.w3.org/Graphics/SVG/1.1/DTD/svg11.dtd" [
	<!ENTITY ns_extend "http://ns.adobe.com/Extensibility/1.0/">
	<!ENTITY ns_ai "http://ns.adobe.com/AdobeIllustrator/10.0/">
	<!ENTITY ns_graphs "http://ns.adobe.com/Graphs/1.0/">
	<!ENTITY ns_vars "http://ns.adobe.com/Variables/1.0/">
	<!ENTITY ns_imrep "http://ns.adobe.com/ImageReplacement/1.0/">
	<!ENTITY ns_sfw "http://ns.adobe.com/SaveForWeb/1.0/">
	<!ENTITY ns_custom "http://ns.adobe.com/GenericCustomNamespace/1.0/">
	<!ENTITY ns_adobe_xpath "http://ns.adobe.com/XPath/1.0/">
]>
<svg version="1.1" id="Facebook_1_" xmlns:x="&ns_extend;" xmlns:i="&ns_ai;" xmlns:graph="&ns_graphs;"
	 xmlns="http://www.w3.org/2000/svg" xmlns:xlink="http://www.w3.org/1999/xlink" x="0px" y="0px" width="120px" height="24px"
	 viewBox="0 0 120 24" enable-background="new 0 0 120 24" xml:space="preserve">
<metadata>
	<sfw  xmlns="&ns_sfw;">
		<slices></slices>
		<sliceSourceBounds  height="19.499" width="115.503" y="2.751" x="-10.25" bottomLeftOrigin="true"></sliceSourceBounds>
	</sfw>
</metadata>
<path fill="#2D2D2D" d="M12,6.937c-2.792,0-5.063,2.271-5.063,5.063S9.208,17.063,12,17.063S17.062,14.79,17.062,12
	C17.063,9.208,14.792,6.937,12,6.937L12,6.937z M12,15.131c-1.728,0-3.132-1.402-3.132-3.131c0-1.728,1.404-3.131,3.132-3.131
	s3.132,1.403,3.132,3.131C15.132,13.729,13.728,15.131,12,15.131z M16.138,2.25H7.862c-3.094,0-5.612,2.518-5.612,5.611v8.278
	c0,3.094,2.519,5.61,5.612,5.61h8.275c3.094,0,5.612-2.519,5.612-5.61V7.861C21.75,4.768,19.233,2.25,16.138,2.25L16.138,2.25z
	 M19.819,16.139c0,2.028-1.652,3.68-3.682,3.68H7.862c-2.029,0-3.68-1.65-3.68-3.68V7.861c0-2.028,1.65-3.679,3.68-3.679h8.275
	c2.029,0,3.68,1.65,3.68,3.679v8.278H19.819L19.819,16.139z M17.132,5.474c-0.729,0-1.324,0.594-1.324,1.325
	c0,0.729,0.594,1.324,1.324,1.324s1.324-0.593,1.324-1.324S17.862,5.474,17.132,5.474z"/>
<path fill="#DE3855" d="M36,6.937c-2.792,0-5.063,2.271-5.063,5.063s2.271,5.063,5.063,5.063S41.063,14.79,41.063,12
	C41.063,9.208,38.792,6.937,36,6.937L36,6.937z M36,15.131c-1.729,0-3.132-1.402-3.132-3.131c0-1.728,1.403-3.131,3.132-3.131
	s3.132,1.403,3.132,3.131C39.132,13.729,37.729,15.131,36,15.131z M40.139,2.25h-8.275c-3.094,0-5.612,2.518-5.612,5.611v8.278
	c0,3.094,2.519,5.61,5.612,5.61h8.275c3.094,0,5.611-2.519,5.611-5.61V7.861C45.75,4.768,43.232,2.25,40.139,2.25L40.139,2.25z
	 M43.818,16.139c0,2.028-1.651,3.68-3.682,3.68h-8.275c-2.028,0-3.68-1.65-3.68-3.68V7.861c0-2.028,1.65-3.679,3.68-3.679h8.275
	c2.029,0,3.68,1.65,3.68,3.679v8.278H43.818L43.818,16.139z M41.132,5.474c-0.729,0-1.323,0.594-1.323,1.325
	c0,0.729,0.594,1.324,1.323,1.324s1.324-0.593,1.324-1.324S41.861,5.474,41.132,5.474z"/>
<path opacity="0.35" fill="#2D2D2D" d="M60.002,6.937c-2.792,0-5.063,2.271-5.063,5.063s2.271,5.063,5.063,5.063
	S65.064,14.79,65.064,12C65.064,9.208,62.794,6.937,60.002,6.937L60.002,6.937z M60.002,15.131c-1.728,0-3.132-1.402-3.132-3.131
	c0-1.728,1.404-3.131,3.132-3.131s3.132,1.403,3.132,3.131C63.134,13.729,61.729,15.131,60.002,15.131z M64.141,2.25h-8.276
	c-3.094,0-5.612,2.518-5.612,5.611v8.278c0,3.094,2.519,5.61,5.612,5.61h8.274c3.094,0,5.612-2.519,5.612-5.61V7.861
	C69.752,4.768,67.234,2.25,64.141,2.25L64.141,2.25z M67.82,16.139c0,2.028-1.651,3.68-3.682,3.68h-8.274
	c-2.029,0-3.68-1.65-3.68-3.68V7.861c0-2.028,1.649-3.679,3.68-3.679h8.274c2.029,0,3.68,1.65,3.68,3.679v8.278H67.82L67.82,16.139z
	 M65.134,5.474c-0.729,0-1.323,0.594-1.323,1.325c0,0.729,0.594,1.324,1.323,1.324s1.324-0.593,1.324-1.324
	S65.863,5.474,65.134,5.474z"/>
<path fill="#DE3855" d="M84.002,6.937c-2.792,0-5.063,2.271-5.063,5.063s2.271,5.063,5.063,5.063S89.064,14.79,89.064,12
	C89.064,9.208,86.794,6.937,84.002,6.937L84.002,6.937z M84.002,15.131c-1.729,0-3.132-1.402-3.132-3.131
	c0-1.728,1.403-3.131,3.132-3.131s3.132,1.403,3.132,3.131C87.134,13.729,85.73,15.131,84.002,15.131z M88.141,2.25h-8.275
	c-3.094,0-5.612,2.518-5.612,5.611v8.278c0,3.094,2.519,5.61,5.612,5.61h8.275c3.094,0,5.611-2.519,5.611-5.61V7.861
	C93.752,4.768,91.234,2.25,88.141,2.25L88.141,2.25z M91.82,16.139c0,2.028-1.651,3.68-3.682,3.68h-8.275
	c-2.028,0-3.68-1.65-3.68-3.68V7.861c0-2.028,1.65-3.679,3.68-3.679h8.275c2.029,0,3.68,1.65,3.68,3.679v8.278H91.82L91.82,16.139z
	 M89.134,5.474c-0.729,0-1.323,0.594-1.323,1.325c0,0.729,0.594,1.324,1.323,1.324s1.324-0.593,1.324-1.324
	S89.863,5.474,89.134,5.474z"/>
<path fill="#DE3855" d="M108.003,6.937c-2.792,0-5.063,2.271-5.063,5.063s2.271,5.063,5.063,5.063s5.063-2.272,5.063-5.063
	C113.065,9.208,110.795,6.937,108.003,6.937L108.003,6.937z M108.003,15.131c-1.729,0-3.132-1.402-3.132-3.131
	c0-1.728,1.403-3.131,3.132-3.131s3.132,1.403,3.132,3.131C111.135,13.729,109.731,15.131,108.003,15.131z M112.142,2.25h-8.275
	c-3.094,0-5.612,2.518-5.612,5.611v8.278c0,3.094,2.519,5.61,5.612,5.61h8.275c3.094,0,5.611-2.519,5.611-5.61V7.861
	C117.753,4.768,115.235,2.25,112.142,2.25L112.142,2.25z M115.821,16.139c0,2.028-1.651,3.68-3.682,3.68h-8.275
	c-2.028,0-3.68-1.65-3.68-3.68V7.861c0-2.028,1.65-3.679,3.68-3.679h8.275c2.029,0,3.68,1.65,3.68,3.679v8.278H115.821
	L115.821,16.139z M113.135,5.474c-0.729,0-1.323,0.594-1.323,1.325c0,0.729,0.594,1.324,1.323,1.324s1.324-0.593,1.324-1.324
	S113.864,5.474,113.135,5.474z"/>
</svg>
