<?xml version="1.0" encoding="utf-8"?>
<!-- Generator: Adobe Illustrator 15.0.2, SVG Export Plug-In . SVG Version: 6.00 Build 0)  -->
<!DOCTYPE svg PUBLIC "-//W3C//DTD SVG 1.1//EN" "http://www.w3.org/Graphics/SVG/1.1/DTD/svg11.dtd">
<svg version="1.1" id="Calque_1" xmlns="http://www.w3.org/2000/svg" xmlns:xlink="http://www.w3.org/1999/xlink" x="0px" y="0px"
	 width="160px" height="34px" viewBox="0 0 160 34" enable-background="new 0 0 160 34" xml:space="preserve">
<rect fill="none" width="160" height="34"/>
<g opacity="0.25">
	<g>
		<g>
			<polygon fill="#FFFBFF" points="87.094,18.775 87.094,24.021 73.023,24.021 73.023,18.775 80.061,13.407 			"/>
		</g>
		<g>
			<polygon fill="#FFFBFF" points="70.938,18.475 70.07,17.29 80.063,9.979 89.93,17.293 89.059,18.469 80.059,11.796 			"/>
		</g>
	</g>
</g>
<g>
	<g>
		<g>
			<polygon fill="#FFFBFF" points="119.094,18.775 119.094,24.021 105.023,24.021 105.023,18.775 112.061,13.407 			"/>
		</g>
		<g>
			<polygon fill="#FFFBFF" points="102.938,18.475 102.07,17.29 112.063,9.979 121.93,17.293 121.059,18.469 112.059,11.796 			"/>
		</g>
	</g>
</g>
<g>
	<g>
		<polygon fill="#FFFBFF" points="55.094,18.775 55.094,24.021 41.023,24.021 41.023,18.775 48.061,13.407 		"/>
	</g>
	<g>
		<polygon fill="#FFFBFF" points="38.937,18.475 38.07,17.29 48.063,9.979 57.93,17.293 57.059,18.469 48.058,11.796 		"/>
	</g>
</g>
<g opacity="0.5">
	<g>
		<polygon fill="#FFFBFF" points="23.094,18.775 23.094,24.021 9.023,24.021 9.023,18.775 16.061,13.407 		"/>
	</g>
	<g>
		<polygon fill="#FFFBFF" points="6.937,18.475 6.07,17.29 16.063,9.979 25.93,17.293 25.059,18.469 16.058,11.796 		"/>
	</g>
</g>
<g>
	<g>
		<polygon fill="#FFFBFF" points="151.094,18.775 151.094,24.021 137.023,24.021 137.023,18.775 144.061,13.407 		"/>
	</g>
	<g>
		<polygon fill="#FFFBFF" points="134.938,18.475 134.07,17.29 144.063,9.979 153.93,17.293 153.059,18.469 144.059,11.796 		"/>
	</g>
</g>
</svg>
