<?xml version="1.0" encoding="utf-8"?>
<!-- Generator: Adobe Illustrator 15.0.2, SVG Export Plug-In . SVG Version: 6.00 Build 0)  -->
<!DOCTYPE svg PUBLIC "-//W3C//DTD SVG 1.1//EN" "http://www.w3.org/Graphics/SVG/1.1/DTD/svg11.dtd">
<svg version="1.1" id="Calque_1" xmlns="http://www.w3.org/2000/svg" xmlns:xlink="http://www.w3.org/1999/xlink" x="0px" y="0px"
	 width="24px" height="24px" viewBox="0 0 24 24" enable-background="new 0 0 24 24" xml:space="preserve">
<g>
	<path fill="#9595A4" d="M14.627,7.055c-0.168,0-0.33,1.022-0.49,1.056l-2.008,3.271l1.967,1.111l-0.68,3.802
		c0.408-0.383,0.859-0.795,1.195-1.067c1.635-1.341,3.324-2.725,3.324-4.867C17.938,8.414,16.576,7.055,14.627,7.055z"/>
	<path fill="#9595A4" d="M9.531,12.21l1.993-3.24c-0.548-0.461-1.302-1.914-2.15-1.914c-1.948,0-3.309,1.358-3.309,3.304
		c0,2.143,1.689,3.526,3.324,4.866c0.552,0.453,1.424,1.281,1.88,1.72l0.608-3.407L9.531,12.21z"/>
</g>
</svg>
