<?xml version="1.0" encoding="utf-8"?>
<!-- Generator: Adobe Illustrator 15.0.2, SVG Export Plug-In . SVG Version: 6.00 Build 0)  -->
<!DOCTYPE svg PUBLIC "-//W3C//DTD SVG 1.1//EN" "http://www.w3.org/Graphics/SVG/1.1/DTD/svg11.dtd">
<svg version="1.1" id="Calque_1" xmlns="http://www.w3.org/2000/svg" xmlns:xlink="http://www.w3.org/1999/xlink" x="0px" y="0px"
	 width="24px" height="24px" viewBox="0 0 24 24" enable-background="new 0 0 24 24" xml:space="preserve">
<path fill="#9595A4" d="M19.676,9.571l-5.239-5.24c-0.336-0.337-0.795-0.425-1.023-0.197l-7.005,7.005
	c-0.072,0.072-0.113,0.168-0.124,0.276c-0.007,0.019-0.014,0.038-0.02,0.059l-2.241,8.054c-0.039,0.14-0.027,0.256,0.024,0.337
	c0.051,0.081,0.142,0.127,0.26,0.127c0.047,0,0.099-0.009,0.154-0.022l8.069-2.214c0.037-0.011,0.07-0.022,0.101-0.036
	c0.091-0.018,0.172-0.056,0.236-0.119l7.004-7.003C20.103,10.366,20.015,9.908,19.676,9.571z M7.117,18.782l-1.951-1.713
	l1.383-4.968c0.018,0.021,0.038,0.041,0.057,0.061l5.24,5.239c0.022,0.021,0.045,0.045,0.069,0.063L7.117,18.782z"/>
</svg>
