<?xml version="1.0" encoding="utf-8"?>
<!-- Generator: Adobe Illustrator 15.0.2, SVG Export Plug-In . SVG Version: 6.00 Build 0)  -->
<!DOCTYPE svg PUBLIC "-//W3C//DTD SVG 1.1//EN" "http://www.w3.org/Graphics/SVG/1.1/DTD/svg11.dtd">
<svg version="1.1" id="Calque_1" xmlns="http://www.w3.org/2000/svg" xmlns:xlink="http://www.w3.org/1999/xlink" x="0px" y="0px"
	 width="24px" height="24px" viewBox="0 0 24 24" enable-background="new 0 0 24 24" xml:space="preserve">
<g>
	<path fill="#808090" d="M15.993,5.51h-1.469l-0.019,4.469c0,0.007-0.007,0.013-0.014,0.013H7.456c-0.008,0-0.013-0.005-0.013-0.013
		V5.51H5.5v12.981h13V7.973L15.993,5.51z M16.981,17.798H7.189v-6.694h9.792V17.798z"/>
	<path fill="#808090" d="M8.078,12.885h7.955v0.793H8.078V12.885z M8.078,15.211h0.098h7.749h0.109v0.791H8.078V15.211z"/>
	<rect x="10.775" y="6.008" fill="#808090" width="2.805" height="3.299"/>
	<rect x="8.176" y="12.901" fill="#808090" width="7.749" height="0.769"/>
	<path fill="#808090" d="M16.034,12.885H8.078v0.793h7.955L16.034,12.885L16.034,12.885z M15.925,13.672H8.176v-0.771h7.749V13.672z
		"/>
	<rect x="8.176" y="15.211" fill="#808090" width="7.749" height="0.77"/>
	<polygon fill="#808090" points="16.034,15.211 15.925,15.211 15.925,15.98 8.176,15.98 8.176,15.211 8.078,15.211 8.078,16.002 
		16.034,16.002 	"/>
</g>
</svg>
