<?xml version="1.0" encoding="utf-8"?>
<!-- Generator: Adobe Illustrator 15.0.2, SVG Export Plug-In . SVG Version: 6.00 Build 0)  -->
<!DOCTYPE svg PUBLIC "-//W3C//DTD SVG 1.1//EN" "http://www.w3.org/Graphics/SVG/1.1/DTD/svg11.dtd">
<svg version="1.1" id="Calque_1" xmlns="http://www.w3.org/2000/svg" xmlns:xlink="http://www.w3.org/1999/xlink" x="0px" y="0px"
	 width="24px" height="24px" viewBox="0 0 24 24" enable-background="new 0 0 24 24" xml:space="preserve">
<g>
	<path fill="#0000FF" d="M17.671,6.162c-1.193-0.979-2.02-0.691-2.439-0.287c-0.146,0.142-0.607,0.514-0.945,0.784
		c0.381,0.024,1.146,0.188,1.984,1.019c0.834,0.826,0.994,1.533,1.002,1.927c0.285-0.366,0.729-0.941,0.797-1.011
		C18.528,8.126,18.864,7.141,17.671,6.162z"/>
	<path fill="#0000FF" d="M12.885,8.136L11.788,9.1l-4.066,4.108l-0.339,0.603l-0.585,1.467l0,0L5.51,18.5l4.672-1.939l0.588-0.33
		l1.482-1.494l0,0l2.587-2.608l0.909-1.093c0,0,0.146-0.766-0.939-1.854C13.737,8.108,12.885,8.136,12.885,8.136z"/>
</g>
</svg>
