<?xml version="1.0" encoding="utf-8"?>
<!-- Generator: Adobe Illustrator 15.0.2, SVG Export Plug-In . SVG Version: 6.00 Build 0)  -->
<!DOCTYPE svg PUBLIC "-//W3C//DTD SVG 1.1//EN" "http://www.w3.org/Graphics/SVG/1.1/DTD/svg11.dtd">
<svg version="1.1" id="Calque_1" xmlns="http://www.w3.org/2000/svg" xmlns:xlink="http://www.w3.org/1999/xlink" x="0px" y="0px"
	 width="24px" height="24px" viewBox="28 0 24 24" enable-background="new 28 0 24 24" xml:space="preserve">
<g>
	<path fill="none" d="M36.5,17c0,0.275,0.224,0.5,0.5,0.5h6c0.275,0,0.5-0.225,0.5-0.5v-4h-7V17z M37.51,14h5v1h-5V14z"/>
	<circle fill="none" cx="44.26" cy="11.25" r="0.75"/>
	<path fill="none" d="M43.5,7c0-0.275-0.225-0.5-0.5-0.5h-6c-0.276,0-0.5,0.225-0.5,0.5v2.5h7V7z"/>
	<g>
		<rect x="37.5" y="15" fill="#808090" width="5" height="1"/>
		<path fill="#808090" d="M45,9.5h-0.51V7c0-0.827-0.674-1.5-1.5-1.5h-6c-0.827,0-1.5,0.673-1.5,1.5v2.5H35
			c-0.828,0-1.5,0.672-1.5,1.5v3c0,0.828,0.672,1.5,1.5,1.5h0.49V17c0,0.827,0.673,1.5,1.5,1.5h6c0.826,0,1.5-0.673,1.5-1.5v-1.5H45
			c0.828,0,1.5-0.672,1.5-1.5v-3C46.5,10.172,45.828,9.5,45,9.5z M43.49,17c0,0.275-0.226,0.5-0.5,0.5h-6
			c-0.276,0-0.5-0.225-0.5-0.5v-4h7V17z M43.49,9.5h-7V7c0-0.275,0.224-0.5,0.5-0.5h6c0.274,0,0.5,0.225,0.5,0.5V9.5z M44.25,12
			c-0.414,0-0.75-0.336-0.75-0.75s0.336-0.75,0.75-0.75S45,10.836,45,11.25S44.664,12,44.25,12z"/>
	</g>
</g>
</svg>
