<?xml version="1.0" encoding="utf-8"?>
<!-- Generator: Adobe Illustrator 15.0.0, SVG Export Plug-In . SVG Version: 6.00 Build 0)  -->
<!DOCTYPE svg PUBLIC "-//W3C//DTD SVG 1.1//EN" "http://www.w3.org/Graphics/SVG/1.1/DTD/svg11.dtd" [
	<!ENTITY ns_extend "http://ns.adobe.com/Extensibility/1.0/">
	<!ENTITY ns_ai "http://ns.adobe.com/AdobeIllustrator/10.0/">
	<!ENTITY ns_graphs "http://ns.adobe.com/Graphs/1.0/">
	<!ENTITY ns_vars "http://ns.adobe.com/Variables/1.0/">
	<!ENTITY ns_imrep "http://ns.adobe.com/ImageReplacement/1.0/">
	<!ENTITY ns_sfw "http://ns.adobe.com/SaveForWeb/1.0/">
	<!ENTITY ns_custom "http://ns.adobe.com/GenericCustomNamespace/1.0/">
	<!ENTITY ns_adobe_xpath "http://ns.adobe.com/XPath/1.0/">
]>
<svg version="1.1" id="Calque_1" xmlns:x="&ns_extend;" xmlns:i="&ns_ai;" xmlns:graph="&ns_graphs;"
	 xmlns="http://www.w3.org/2000/svg" xmlns:xlink="http://www.w3.org/1999/xlink" x="0px" y="0px" width="24px" height="24px"
	 viewBox="0 0 24 24" enable-background="new 0 0 24 24" xml:space="preserve">
<metadata>
	<sfw  xmlns="&ns_sfw;">
		<slices></slices>
		<sliceSourceBounds  height="18" width="18.005" y="3.5" x="2.498" bottomLeftOrigin="true"></sliceSourceBounds>
	</sfw>
</metadata>
<g opacity="0.8">
	<path fill="#FFFBFF" d="M3.129,18.559c0.089-0.229,0.217-0.42,0.386-0.563l4.252-4.041c0.3,0.458,0.639,0.879,1.023,1.263
		c0.449,0.444,0.944,0.833,1.487,1.166L5.924,20.52c-0.142,0.158-0.32,0.277-0.539,0.357C5.168,20.957,4.949,21,4.726,21
		c-0.23,0-0.453-0.045-0.667-0.135c-0.213-0.094-0.406-0.227-0.574-0.403c-0.163-0.172-0.285-0.36-0.367-0.567
		c-0.081-0.211-0.12-0.424-0.12-0.644C2.998,19.021,3.041,18.792,3.129,18.559z"/>
	<path fill="#FFFBFF" d="M14.468,3c-3.61,0-6.534,2.925-6.534,6.534c0,3.608,2.926,6.534,6.534,6.534
		c3.609,0,6.535-2.926,6.535-6.534C21.003,5.924,18.077,3,14.468,3z M14.468,14.102c-2.522,0-4.566-2.042-4.566-4.563
		s2.044-4.566,4.566-4.566c2.522,0,4.567,2.044,4.567,4.566S16.99,14.102,14.468,14.102z"/>
</g>
</svg>
