<?xml version="1.0" encoding="utf-8"?>
<!-- Generator: Adobe Illustrator 15.0.2, SVG Export Plug-In . SVG Version: 6.00 Build 0)  -->
<!DOCTYPE svg PUBLIC "-//W3C//DTD SVG 1.1//EN" "http://www.w3.org/Graphics/SVG/1.1/DTD/svg11.dtd">
<svg version="1.1" id="Calque_1" xmlns="http://www.w3.org/2000/svg" xmlns:xlink="http://www.w3.org/1999/xlink" x="0px" y="0px"
	 width="168px" height="14px" viewBox="0 0 168 14" enable-background="new 0 0 168 14" xml:space="preserve">
<path fill="#EEEBE8" d="M13,12c0,0.55-0.45,1-1,1H2c-0.55,0-1-0.45-1-1V2c0-0.55,0.45-1,1-1h10c0.55,0,1,0.45,1,1V12z"/>
<path fill="#EEEBE8" d="M27,12c0,0.55-0.45,1-1,1H16c-0.55,0-1-0.45-1-1V2c0-0.55,0.45-1,1-1h10c0.55,0,1,0.45,1,1V12z"/>
<path fill="#EEEBE8" d="M41,12c0,0.55-0.45,1-1,1H30c-0.55,0-1-0.45-1-1V2c0-0.55,0.45-1,1-1h10c0.55,0,1,0.45,1,1V12z"/>
<path fill="#EEEBE8" d="M55,12c0,0.55-0.45,1-1,1H44c-0.55,0-1-0.45-1-1V2c0-0.55,0.45-1,1-1h10c0.55,0,1,0.45,1,1V12z"/>
<path fill="#EEEBE8" d="M83,12c0,0.55-0.45,1-1,1H72c-0.55,0-1-0.45-1-1V2c0-0.55,0.45-1,1-1h10c0.55,0,1,0.45,1,1V12z"/>
<path fill="#EEEBE8" d="M125,12c0,0.55-0.45,1-1,1h-10c-0.55,0-1-0.45-1-1V2c0-0.55,0.45-1,1-1h10c0.55,0,1,0.45,1,1V12z"/>
<g>
	<g>
		<polygon fill="#FFFFFF" points="5.857,8.373 3.799,6.314 3,7.115 5.857,9.971 11,4.829 10.199,4.029 		"/>
	</g>
</g>
<g>
	<g>
		<polygon fill="#FFFFFF" points="19.857,8.373 17.799,6.314 17,7.115 19.857,9.971 25,4.829 24.199,4.029 		"/>
	</g>
</g>
<g>
	<g>
		<polygon fill="#FFFFFF" points="33.857,8.373 31.799,6.314 31,7.115 33.857,9.971 39,4.829 38.199,4.029 		"/>
	</g>
</g>
<g>
	<g>
		<polygon fill="#FFFFFF" points="47.857,8.373 45.799,6.314 45,7.115 47.857,9.971 53,4.829 52.199,4.029 		"/>
	</g>
</g>
<g>
	<g>
		<polygon fill="#FFFFFF" points="75.857,8.373 73.799,6.314 73,7.115 75.857,9.971 81,4.829 80.199,4.029 		"/>
	</g>
</g>
<g>
	<g>
		<polygon fill="#FFFFFF" points="117.857,8.373 115.799,6.314 115,7.115 117.857,9.971 123,4.829 122.199,4.029 		"/>
	</g>
</g>
<rect fill="none" width="168" height="14"/>
<g>
	<path fill="#FFFFFF" d="M58,12.5c-0.276,0-0.5-0.225-0.5-0.5V2c0-0.276,0.224-0.5,0.5-0.5h10c0.276,0,0.5,0.224,0.5,0.5v10
		c0,0.275-0.224,0.5-0.5,0.5H58z"/>
	<path fill="#C8F87C" d="M68,2v10H58V2H68 M68,1H58c-0.55,0-1,0.45-1,1v10c0,0.55,0.45,1,1,1h10c0.55,0,1-0.45,1-1V2
		C69,1.45,68.55,1,68,1L68,1z"/>
</g>
<g>
	<path fill="#FFFFFF" d="M86,12.5c-0.275,0-0.5-0.225-0.5-0.5V2c0-0.276,0.225-0.5,0.5-0.5h10c0.275,0,0.5,0.224,0.5,0.5v10
		c0,0.275-0.225,0.5-0.5,0.5H86z"/>
	<path fill="#C8F87C" d="M96,2v10H86V2H96 M96,1H86c-0.55,0-1,0.45-1,1v10c0,0.55,0.45,1,1,1h10c0.55,0,1-0.45,1-1V2
		C97,1.45,96.55,1,96,1L96,1z"/>
</g>
<g>
	<path fill="#FFFFFF" d="M100,12.5c-0.275,0-0.5-0.225-0.5-0.5V2c0-0.276,0.225-0.5,0.5-0.5h10c0.275,0,0.5,0.224,0.5,0.5v10
		c0,0.275-0.225,0.5-0.5,0.5H100z"/>
	<path fill="#C8F87C" d="M110,2v10h-10V2H110 M110,1h-10c-0.55,0-1,0.45-1,1v10c0,0.55,0.45,1,1,1h10c0.55,0,1-0.45,1-1V2
		C111,1.45,110.55,1,110,1L110,1z"/>
</g>
<g>
	<path fill="#FFFFFF" d="M128,12.5c-0.275,0-0.5-0.225-0.5-0.5V2c0-0.276,0.225-0.5,0.5-0.5h10c0.275,0,0.5,0.224,0.5,0.5v10
		c0,0.275-0.225,0.5-0.5,0.5H128z"/>
	<path fill="#C8F87C" d="M138,2v10h-10V2H138 M138,1h-10c-0.55,0-1,0.45-1,1v10c0,0.55,0.45,1,1,1h10c0.55,0,1-0.45,1-1V2
		C139,1.45,138.55,1,138,1L138,1z"/>
</g>
<g>
	<path fill="#FFFFFF" d="M142,12.5c-0.275,0-0.5-0.225-0.5-0.5V2c0-0.276,0.225-0.5,0.5-0.5h10c0.275,0,0.5,0.224,0.5,0.5v10
		c0,0.275-0.225,0.5-0.5,0.5H142z"/>
	<path fill="#C8F87C" d="M152,2v10h-10V2H152 M152,1h-10c-0.55,0-1,0.45-1,1v10c0,0.55,0.45,1,1,1h10c0.55,0,1-0.45,1-1V2
		C153,1.45,152.55,1,152,1L152,1z"/>
</g>
<g>
	<path fill="#FFFFFF" d="M156,12.5c-0.275,0-0.5-0.225-0.5-0.5V2c0-0.276,0.225-0.5,0.5-0.5h10c0.275,0,0.5,0.224,0.5,0.5v10
		c0,0.275-0.225,0.5-0.5,0.5H156z"/>
	<path fill="#C8F87C" d="M166,2v10h-10V2H166 M166,1h-10c-0.55,0-1,0.45-1,1v10c0,0.55,0.45,1,1,1h10c0.55,0,1-0.45,1-1V2
		C167,1.45,166.55,1,166,1L166,1z"/>
</g>
</svg>
