<?xml version="1.0" encoding="utf-8"?>
<!-- Generator: Adobe Illustrator 15.0.0, SVG Export Plug-In . SVG Version: 6.00 Build 0)  -->
<!DOCTYPE svg PUBLIC "-//W3C//DTD SVG 1.1//EN" "http://www.w3.org/Graphics/SVG/1.1/DTD/svg11.dtd">
<svg version="1.1" id="Calque_1" xmlns="http://www.w3.org/2000/svg" xmlns:xlink="http://www.w3.org/1999/xlink" x="0px" y="0px"
	 width="92px" height="56px" viewBox="0 0 92 56" enable-background="new 0 0 92 56" xml:space="preserve">
<g>
	<path fill="#FFFBFF" d="M53.936,25.802c0.675-0.39,0.909-1.261,0.519-1.936l-0.055-0.097c-0.39-0.675-1.261-0.909-1.936-0.519
		l-3.891,2.245c-0.676,0.389-1.229,0.07-1.229-0.709v-4.478c0-0.779-0.638-1.418-1.417-1.418h-0.189
		c-0.779,0-1.417,0.639-1.417,1.418v4.496c0,0.779-0.552,1.098-1.228,0.709l-3.887-2.242c-0.675-0.39-1.546-0.156-1.936,0.52
		l-0.056,0.097c-0.39,0.675-0.156,1.546,0.52,1.936l3.907,2.254c0.675,0.39,0.675,1.026,0,1.416l-7.62,4.396
		c-0.676,0.391-1.228,1.111-1.228,1.605c0,0.492,0.313,1.076,0.697,1.297c0.383,0.223,1.249,0.084,1.924-0.305l7.677-4.43
		c0.675-0.39,1.228-0.069,1.228,0.71v4.549c0,0.778,0.638,1.417,1.417,1.417h0.189c0.779,0,1.417-0.639,1.417-1.417v-4.53
		c0-0.78,0.553-1.1,1.229-0.71l3.862,2.229c0.675,0.39,1.546,0.155,1.936-0.52l0.056-0.097c0.39-0.676,0.155-1.546-0.521-1.935
		l-3.912-2.26c-0.676-0.39-0.676-1.026,0-1.416L53.936,25.802z"/>
	<path fill="#FFFBFF" d="M61.331,19.216c-0.311-0.179-0.649-0.375-0.751-0.434c-0.104-0.059-0.529-0.305-0.947-0.546
		c-0.418-0.241-3.036-1.75-5.814-3.354c-2.779-1.604-5.372-3.1-5.763-3.325s-0.788-0.454-0.881-0.507
		c-0.094-0.054-0.437-0.253-0.764-0.441c-0.327-0.188-0.845-0.198-1.152-0.021s-0.643,0.371-0.748,0.431
		c-0.105,0.061-0.517,0.299-0.916,0.529c-0.399,0.23-2.993,1.727-5.764,3.325c-2.771,1.599-5.387,3.107-5.814,3.354
		s-0.861,0.496-0.964,0.555c-0.102,0.059-0.433,0.25-0.734,0.424s-0.549,0.7-0.549,1.169c0,0.469,0,1.234,0,1.701
		c0,0.466,0,3.485,0,6.708c0,3.224,0,6.242,0,6.709c0,0.465,0,0.948,0,1.072s0,0.508,0,0.854c0,0.345,0.268,0.781,0.594,0.971
		c0.326,0.187,0.657,0.378,0.735,0.423s0.491,0.282,0.918,0.529s3.043,1.757,5.814,3.354c2.771,1.599,5.364,3.094,5.764,3.324
		c0.399,0.23,1.063,0.613,1.474,0.851c0.411,0.238,1.002,0.286,1.313,0.105c0.312-0.179,0.655-0.377,0.765-0.441
		c0.109-0.063,0.519-0.298,0.909-0.523c0.391-0.225,2.983-1.722,5.763-3.324c2.778-1.604,5.396-3.113,5.814-3.354
		s0.824-0.476,0.902-0.521c0.077-0.045,0.415-0.239,0.75-0.434c0.336-0.192,0.61-0.636,0.61-0.984c0-0.348,0-0.723,0-0.834
		c0-0.11,0-0.591,0-1.067c0-0.478,0-3.495,0-6.709c0-3.213,0-6.231,0-6.708c0-0.477,0-0.972,0-1.101c0-0.129,0-0.505,0-0.834
		C61.896,19.811,61.642,19.395,61.331,19.216z M58.871,22.077c0,0.482,0,1.559,0,2.391s0,2.761,0,4.283c0,1.524,0,3.467,0,4.317
		s0,1.941,0,2.425c0,0.481-0.321,1.063-0.713,1.288c-0.392,0.227-1.313,0.757-2.045,1.182c-0.734,0.423-2.434,1.403-3.779,2.178
		c-1.345,0.777-3.017,1.742-3.717,2.146c-0.701,0.403-1.616,0.932-2.036,1.174c-0.42,0.242-1.101,0.246-1.512,0.01
		c-0.411-0.238-2.428-1.401-4.481-2.585c-2.054-1.186-4.333-2.5-5.066-2.923c-0.732-0.425-1.646-0.95-2.03-1.173
		c-0.384-0.221-0.697-0.805-0.697-1.297c0-0.494,0-1.582,0-2.42c0-0.839,0-3.453,0-5.812c0-2.358,0-4.692,0-5.185
		c0-0.493,0.313-1.078,0.697-1.299c0.383-0.221,1.276-0.736,1.985-1.145c0.708-0.409,2.412-1.391,3.785-2.184
		c1.375-0.792,3.075-1.773,3.779-2.18c0.704-0.406,1.617-0.933,2.028-1.17c0.411-0.238,1.091-0.233,1.512,0.009
		c0.42,0.242,1.349,0.779,2.063,1.191c0.716,0.413,2.409,1.389,3.764,2.17c1.354,0.781,3.041,1.754,3.75,2.163
		c0.708,0.409,1.608,0.928,2,1.154C58.55,21.013,58.871,21.594,58.871,22.077z"/>
</g>
</svg>
