<?xml version="1.0" encoding="utf-8"?>
<!-- Generator: Adobe Illustrator 15.0.0, SVG Export Plug-In . SVG Version: 6.00 Build 0)  -->
<!DOCTYPE svg PUBLIC "-//W3C//DTD SVG 1.1//EN" "http://www.w3.org/Graphics/SVG/1.1/DTD/svg11.dtd">
<svg version="1.1" id="Calque_1" xmlns="http://www.w3.org/2000/svg" xmlns:xlink="http://www.w3.org/1999/xlink" x="0px" y="0px"
	 width="205px" height="205px" viewBox="0 0 205 205" enable-background="new 0 0 205 205" xml:space="preserve">
<g>
	<path fill="#FFFBFF" d="M125.045,93.944c1.893-1.093,2.547-3.535,1.456-5.426l-0.155-0.272c-1.093-1.892-3.535-2.547-5.428-1.456
		l-10.906,6.292c-1.893,1.091-3.441,0.197-3.441-1.987V78.542c0-2.185-1.788-3.974-3.972-3.974h-0.531
		c-2.185,0-3.972,1.789-3.972,3.974v12.604c0,2.184-1.548,3.079-3.441,1.987l-10.895-6.286c-1.893-1.091-4.334-0.436-5.426,1.457
		l-0.156,0.271c-1.093,1.893-0.438,4.334,1.456,5.426l10.951,6.318c1.893,1.092,1.893,2.877,0,3.97l-21.358,12.32
		c-1.894,1.095-3.441,3.117-3.441,4.498c0,1.382,0.879,3.02,1.955,3.64c1.074,0.62,3.502,0.234,5.395-0.856l21.52-12.415
		c1.894-1.093,3.441-0.196,3.441,1.987v12.751c0,2.183,1.788,3.973,3.972,3.973h0.531c2.184,0,3.972-1.79,3.972-3.973v-12.698
		c0-2.186,1.549-3.08,3.441-1.989l10.828,6.247c1.891,1.09,4.332,0.436,5.425-1.457l0.155-0.271
		c1.093-1.895,0.438-4.334-1.456-5.425l-10.969-6.332c-1.893-1.093-1.893-2.878,0-3.97L125.045,93.944z"/>
	<path fill="#FFFBFF" d="M145.775,75.482c-0.87-0.502-1.82-1.048-2.104-1.214c-0.289-0.167-1.484-0.855-2.658-1.532
		c-1.171-0.677-8.507-4.908-16.295-9.402c-7.792-4.495-15.062-8.688-16.156-9.32c-1.095-0.631-2.205-1.271-2.468-1.423
		c-0.263-0.151-1.225-0.707-2.142-1.235c-0.914-0.528-2.368-0.555-3.227-0.059c-0.859,0.497-1.804,1.04-2.097,1.209
		c-0.294,0.17-1.449,0.837-2.568,1.482c-1.119,0.645-8.39,4.84-16.156,9.32c-7.766,4.481-15.099,8.711-16.297,9.402
		c-1.198,0.691-2.414,1.391-2.701,1.558c-0.287,0.166-1.214,0.7-2.06,1.188c-0.845,0.488-1.537,1.963-1.537,3.278
		c0,1.314,0,3.459,0,4.767c0,1.307,0,9.77,0,18.803c0,9.036,0,17.497,0,18.804s0,2.66,0,3.008s0,1.424,0,2.392
		c0,0.967,0.75,2.191,1.665,2.72c0.915,0.527,1.842,1.063,2.06,1.188c0.217,0.125,1.375,0.791,2.573,1.484
		c1.198,0.69,8.531,4.922,16.297,9.401c7.766,4.48,15.037,8.673,16.156,9.319c1.119,0.646,2.979,1.719,4.131,2.383
		c1.153,0.667,2.809,0.8,3.68,0.295c0.872-0.5,1.834-1.056,2.143-1.233c0.305-0.176,1.452-0.839,2.547-1.469
		c1.095-0.632,8.364-4.827,16.156-9.321c7.788-4.493,15.124-8.725,16.295-9.401c1.174-0.675,2.313-1.333,2.531-1.458
		c0.218-0.126,1.165-0.671,2.103-1.217c0.94-0.539,1.71-1.781,1.71-2.757c0-0.978,0-2.027,0-2.339c0-0.311,0-1.658,0-2.995
		c0-1.335,0-9.796,0-18.804c0-9.006,0-17.468,0-18.803c0-1.336,0-2.725,0-3.086c0-0.363,0-1.415,0-2.339
		C147.356,77.151,146.646,75.983,145.775,75.482z M138.88,83.501c0,1.354,0,4.37,0,6.704s0,7.738,0,12.008c0,4.27,0,9.715,0,12.099
		c0,2.385,0,5.443,0,6.796c0,1.354-0.898,2.981-1.997,3.615c-1.099,0.633-3.681,2.121-5.734,3.309
		c-2.056,1.186-6.82,3.935-10.592,6.107c-3.771,2.178-8.458,4.882-10.422,6.015c-1.961,1.132-4.528,2.612-5.705,3.291
		c-1.178,0.681-3.084,0.69-4.238,0.025c-1.152-0.664-6.806-3.926-12.562-7.246c-5.756-3.32-12.146-7.007-14.201-8.192
		c-2.054-1.188-4.615-2.664-5.69-3.284c-1.075-0.62-1.954-2.258-1.954-3.64c0-1.381,0-4.434,0-6.782s0-9.679,0-16.291
		c0-6.611,0-13.151,0-14.533c0-1.381,0.879-3.021,1.954-3.641c1.075-0.62,3.579-2.063,5.564-3.209
		c1.984-1.146,6.76-3.899,10.611-6.122c3.853-2.222,8.619-4.971,10.593-6.111c1.973-1.138,4.532-2.613,5.685-3.279
		c1.153-0.666,3.06-0.653,4.238,0.025c1.177,0.679,3.78,2.183,5.786,3.339c2.004,1.156,6.752,3.894,10.547,6.084
		c3.795,2.189,8.525,4.918,10.511,6.063c1.987,1.146,4.511,2.601,5.609,3.235S138.88,82.147,138.88,83.501z"/>
</g>
</svg>
