<?xml version="1.0" encoding="utf-8"?>
<!-- Generator: Adobe Illustrator 15.0.0, SVG Export Plug-In . SVG Version: 6.00 Build 0)  -->
<!DOCTYPE svg PUBLIC "-//W3C//DTD SVG 1.1//EN" "http://www.w3.org/Graphics/SVG/1.1/DTD/svg11.dtd">
<svg version="1.1" id="Calque_1" xmlns="http://www.w3.org/2000/svg" xmlns:xlink="http://www.w3.org/1999/xlink" x="0px" y="0px"
	 width="80px" height="80px" viewBox="0 0 80 80" enable-background="new 0 0 80 80" xml:space="preserve">
<g>
	<path fill="#FFFBFF" d="M50.814,36.746c0.915-0.528,1.231-1.709,0.704-2.624l-0.075-0.132c-0.528-0.915-1.709-1.231-2.624-0.704
		l-5.273,3.042c-0.915,0.527-1.664,0.095-1.664-0.961v-6.069c0-1.057-0.864-1.921-1.92-1.921h-0.257c-1.056,0-1.92,0.865-1.92,1.921
		v6.094c0,1.056-0.749,1.489-1.664,0.961l-5.268-3.039c-0.915-0.528-2.096-0.211-2.624,0.704l-0.076,0.131
		c-0.528,0.915-0.211,2.096,0.704,2.624l5.295,3.055c0.915,0.528,0.915,1.391,0,1.919l-10.327,5.957
		c-0.916,0.529-1.664,1.507-1.664,2.175s0.425,1.46,0.945,1.76c0.52,0.3,1.693,0.113,2.608-0.414l10.405-6.003
		c0.916-0.528,1.664-0.095,1.664,0.961v6.165c0,1.056,0.864,1.921,1.92,1.921h0.257c1.056,0,1.92-0.865,1.92-1.921v-6.14
		c0-1.057,0.749-1.489,1.664-0.962l5.235,3.021c0.914,0.527,2.095,0.211,2.623-0.704l0.075-0.131
		c0.528-0.916,0.212-2.096-0.704-2.623l-5.304-3.062c-0.915-0.528-0.915-1.392,0-1.919L50.814,36.746z"/>
	<path fill="#FFFBFF" d="M60.838,27.819c-0.421-0.243-0.88-0.507-1.018-0.587c-0.14-0.081-0.718-0.414-1.285-0.741
		c-0.566-0.327-4.113-2.373-7.879-4.546c-3.768-2.173-7.282-4.201-7.812-4.506c-0.529-0.305-1.066-0.615-1.193-0.688
		s-0.592-0.342-1.035-0.597c-0.442-0.255-1.145-0.268-1.561-0.028c-0.416,0.24-0.872,0.503-1.014,0.584
		c-0.142,0.083-0.701,0.405-1.242,0.717s-4.057,2.34-7.812,4.506c-3.755,2.167-7.301,4.212-7.88,4.546s-1.167,0.672-1.306,0.753
		c-0.139,0.08-0.587,0.338-0.996,0.575c-0.409,0.236-0.743,0.949-0.743,1.585c0,0.635,0,1.672,0,2.305c0,0.632,0,4.724,0,9.091
		c0,4.369,0,8.46,0,9.092s0,1.286,0,1.454s0,0.688,0,1.156s0.362,1.06,0.805,1.315c0.442,0.255,0.891,0.514,0.996,0.574
		c0.105,0.061,0.665,0.383,1.244,0.718c0.579,0.334,4.125,2.38,7.88,4.546s7.271,4.193,7.812,4.506s1.44,0.831,1.998,1.152
		c0.558,0.322,1.358,0.387,1.779,0.143c0.422-0.242,0.887-0.511,1.036-0.597c0.147-0.085,0.702-0.405,1.231-0.71
		c0.529-0.306,4.044-2.334,7.812-4.507c3.766-2.173,7.313-4.219,7.879-4.546c0.567-0.326,1.118-0.645,1.224-0.705
		s0.563-0.324,1.017-0.588c0.455-0.261,0.827-0.861,0.827-1.333c0-0.473,0-0.98,0-1.131s0-0.802,0-1.448c0-0.646,0-4.736,0-9.092
		c0-4.354,0-8.446,0-9.091c0-0.646,0-1.317,0-1.492c0-0.175,0-0.684,0-1.131C61.603,28.626,61.259,28.062,60.838,27.819z
		 M57.504,31.697c0,0.654,0,2.113,0,3.241s0,3.741,0,5.806c0,2.064,0,4.697,0,5.85c0,1.153,0,2.632,0,3.286
		s-0.435,1.441-0.966,1.748c-0.531,0.306-1.779,1.025-2.772,1.6c-0.994,0.573-3.298,1.902-5.121,2.953
		c-1.823,1.053-4.09,2.36-5.039,2.908c-0.948,0.547-2.189,1.263-2.759,1.591c-0.569,0.329-1.491,0.334-2.049,0.013
		c-0.557-0.321-3.291-1.898-6.074-3.504s-5.873-3.388-6.866-3.961c-0.993-0.574-2.231-1.288-2.751-1.588
		c-0.52-0.3-0.945-1.092-0.945-1.76s0-2.144,0-3.279s0-4.68,0-7.877c0-3.196,0-6.359,0-7.027s0.425-1.46,0.945-1.76
		c0.52-0.3,1.73-0.998,2.69-1.552c0.959-0.554,3.269-1.885,5.131-2.96c1.863-1.074,4.167-2.403,5.122-2.955
		c0.954-0.55,2.191-1.264,2.749-1.585c0.558-0.322,1.479-0.316,2.049,0.012s1.828,1.055,2.798,1.614
		c0.969,0.559,3.265,1.883,5.1,2.942c1.835,1.059,4.122,2.378,5.082,2.932c0.961,0.554,2.181,1.258,2.712,1.564
		S57.504,31.042,57.504,31.697z"/>
</g>
</svg>
