<?xml version="1.0" encoding="utf-8"?>
<!-- Generator: Adobe Illustrator 15.0.0, SVG Export Plug-In . SVG Version: 6.00 Build 0)  -->
<!DOCTYPE svg PUBLIC "-//W3C//DTD SVG 1.1//EN" "http://www.w3.org/Graphics/SVG/1.1/DTD/svg11.dtd">
<svg version="1.1" id="Calque_1" xmlns="http://www.w3.org/2000/svg" xmlns:xlink="http://www.w3.org/1999/xlink" x="0px" y="0px"
	 width="80px" height="80px" viewBox="0 0 80 80" enable-background="new 0 0 80 80" xml:space="preserve">
<g>
	<path fill="#FFFBFF" d="M51.758,36.4c0.994-0.574,1.337-1.855,0.765-2.849l-0.082-0.143c-0.573-0.993-1.855-1.337-2.849-0.764
		l-5.727,3.304c-0.994,0.573-1.808,0.104-1.808-1.043v-6.591c0-1.147-0.938-2.086-2.085-2.086h-0.279
		c-1.146,0-2.085,0.939-2.085,2.086v6.617c0,1.147-0.813,1.617-1.807,1.043l-5.72-3.3c-0.994-0.573-2.276-0.229-2.849,0.765
		l-0.082,0.143c-0.574,0.994-0.229,2.275,0.765,2.849l5.75,3.317c0.994,0.573,0.994,1.51,0,2.084L22.45,48.301
		c-0.994,0.574-1.807,1.636-1.807,2.361s0.462,1.586,1.027,1.911c0.564,0.325,1.839,0.123,2.833-0.449l11.299-6.52
		c0.994-0.573,1.807-0.103,1.807,1.044v6.694c0,1.146,0.939,2.086,2.085,2.086h0.279c1.146,0,2.085-0.939,2.085-2.086v-6.667
		c0-1.147,0.813-1.617,1.808-1.044l5.685,3.279c0.993,0.573,2.275,0.229,2.849-0.765l0.082-0.142
		c0.573-0.995,0.229-2.275-0.765-2.849l-5.76-3.324c-0.993-0.574-0.993-1.511,0-2.084L51.758,36.4z"/>
	<path fill="#FFFBFF" d="M62.643,26.707c-0.457-0.264-0.955-0.551-1.105-0.638c-0.151-0.087-0.779-0.449-1.396-0.804
		c-0.614-0.355-4.466-2.577-8.556-4.937c-4.091-2.36-7.907-4.562-8.482-4.894c-0.575-0.332-1.158-0.667-1.296-0.747
		s-0.643-0.371-1.124-0.648c-0.48-0.277-1.244-0.291-1.695-0.031c-0.451,0.261-0.947,0.546-1.101,0.635
		c-0.154,0.089-0.761,0.439-1.349,0.778c-0.587,0.339-4.405,2.542-8.482,4.894c-4.078,2.353-7.928,4.574-8.557,4.937
		s-1.267,0.73-1.418,0.817c-0.15,0.087-0.637,0.368-1.082,0.624c-0.444,0.256-0.807,1.031-0.807,1.721c0,0.69,0,1.816,0,2.503
		c0,0.686,0,5.129,0,9.872c0,4.745,0,9.188,0,9.873c0,0.687,0,1.396,0,1.579s0,0.748,0,1.256s0.394,1.15,0.874,1.429
		c0.48,0.276,0.967,0.558,1.082,0.623s0.722,0.416,1.351,0.779s4.479,2.585,8.557,4.937c4.078,2.353,7.895,4.554,8.482,4.894
		c0.588,0.339,1.564,0.902,2.169,1.251c0.605,0.35,1.475,0.42,1.932,0.155c0.459-0.264,0.963-0.555,1.126-0.648
		c0.16-0.092,0.762-0.44,1.337-0.771c0.575-0.332,4.392-2.535,8.482-4.895c4.09-2.359,7.941-4.581,8.556-4.937
		c0.616-0.354,1.215-0.7,1.329-0.766s0.612-0.352,1.104-0.639c0.494-0.283,0.897-0.935,0.897-1.447s0-1.064,0-1.228
		c0-0.164,0-0.871,0-1.573c0-0.701,0-5.144,0-9.873c0-4.729,0-9.171,0-9.872c0-0.702,0-1.431,0-1.621c0-0.19,0-0.743,0-1.228
		S63.1,26.97,62.643,26.707z M59.022,30.917c0,0.71,0,2.294,0,3.52c0,1.226,0,4.063,0,6.305c0,2.242,0,5.102,0,6.353
		c0,1.253,0,2.858,0,3.568c0,0.711-0.473,1.565-1.049,1.898c-0.577,0.332-1.933,1.113-3.011,1.737
		c-1.08,0.622-3.581,2.065-5.562,3.207c-1.979,1.143-4.441,2.563-5.472,3.157s-2.378,1.372-2.996,1.728
		c-0.618,0.357-1.619,0.363-2.225,0.014c-0.605-0.349-3.573-2.062-6.596-3.805s-6.377-3.679-7.456-4.301
		c-1.079-0.624-2.423-1.399-2.988-1.725s-1.026-1.186-1.026-1.911s0-2.327,0-3.561s0-5.082,0-8.554c0-3.471,0-6.905,0-7.63
		c0-0.726,0.462-1.586,1.026-1.912s1.879-1.083,2.921-1.685c1.042-0.601,3.549-2.047,5.572-3.214
		c2.023-1.167,4.525-2.61,5.562-3.208c1.036-0.597,2.38-1.372,2.985-1.722c0.605-0.349,1.606-0.343,2.225,0.014
		c0.618,0.356,1.985,1.146,3.038,1.753c1.053,0.607,3.546,2.044,5.538,3.194s4.477,2.583,5.519,3.184
		c1.044,0.602,2.368,1.366,2.945,1.699C58.55,29.352,59.022,30.206,59.022,30.917z"/>
</g>
</svg>
