<?xml version="1.0" encoding="utf-8"?>
<!-- Generator: Adobe Illustrator 15.0.0, SVG Export Plug-In . SVG Version: 6.00 Build 0)  -->
<!DOCTYPE svg PUBLIC "-//W3C//DTD SVG 1.1//EN" "http://www.w3.org/Graphics/SVG/1.1/DTD/svg11.dtd" [
	<!ENTITY ns_extend "http://ns.adobe.com/Extensibility/1.0/">
	<!ENTITY ns_ai "http://ns.adobe.com/AdobeIllustrator/10.0/">
	<!ENTITY ns_graphs "http://ns.adobe.com/Graphs/1.0/">
	<!ENTITY ns_vars "http://ns.adobe.com/Variables/1.0/">
	<!ENTITY ns_imrep "http://ns.adobe.com/ImageReplacement/1.0/">
	<!ENTITY ns_sfw "http://ns.adobe.com/SaveForWeb/1.0/">
	<!ENTITY ns_custom "http://ns.adobe.com/GenericCustomNamespace/1.0/">
	<!ENTITY ns_adobe_xpath "http://ns.adobe.com/XPath/1.0/">
]>
<svg version="1.1" id="Capa_1" xmlns:x="&ns_extend;" xmlns:i="&ns_ai;" xmlns:graph="&ns_graphs;"
	 xmlns="http://www.w3.org/2000/svg" xmlns:xlink="http://www.w3.org/1999/xlink" x="0px" y="0px" width="180px" height="36px"
	 viewBox="0 0 180 36" enable-background="new 0 0 180 36" xml:space="preserve">
<metadata>
	<sfw  xmlns="&ns_sfw;">
		<slices></slices>
		<sliceSourceBounds  height="16" width="160.002" y="20.5" x="-52.5" bottomLeftOrigin="true"></sliceSourceBounds>
	</sfw>
</metadata>
<path fill="#FFFBFF" d="M10.096,25.916C10.157,25.973,10.235,26,10.314,26c0.082,0,0.164-0.031,0.225-0.093l4.673-4.681
	c1.14,0.912,2.604,1.461,4.199,1.461c3.633,0,6.588-2.847,6.588-6.345c0-3.498-2.954-6.343-6.587-6.343
	c-3.633,0-6.588,2.846-6.588,6.344c0,1.746,0.736,3.328,1.925,4.477l-4.661,4.669C9.967,25.609,9.972,25.8,10.096,25.916z
	 M13.45,16.344c0-3.165,2.674-5.74,5.962-5.74c3.287,0,5.96,2.575,5.96,5.74c0,3.165-2.673,5.739-5.96,5.739
	C16.126,22.083,13.45,19.509,13.45,16.344z"/>
<path fill="#FFFBFF" d="M46.096,25.916C46.157,25.973,46.235,26,46.314,26c0.082,0,0.164-0.031,0.225-0.093l4.674-4.681
	c1.141,0.912,2.604,1.461,4.199,1.461c3.633,0,6.588-2.847,6.588-6.345C62,12.845,59.045,10,55.412,10
	c-3.633,0-6.588,2.846-6.588,6.344c0,1.746,0.736,3.328,1.924,4.477l-4.66,4.669C45.967,25.609,45.972,25.8,46.096,25.916z
	 M49.45,16.344c0-3.165,2.675-5.74,5.962-5.74s5.96,2.575,5.96,5.74c0,3.165-2.673,5.739-5.96,5.739
	C52.126,22.083,49.45,19.509,49.45,16.344z"/>
<path fill="#FFFBFF" d="M82.096,25.916C82.157,25.973,82.235,26,82.314,26c0.082,0,0.164-0.031,0.225-0.093l4.674-4.681
	c1.141,0.912,2.604,1.461,4.199,1.461c3.633,0,6.588-2.847,6.588-6.345C98,12.845,95.045,10,91.412,10
	c-3.633,0-6.588,2.846-6.588,6.344c0,1.746,0.736,3.328,1.924,4.477l-4.66,4.669C81.967,25.609,81.972,25.8,82.096,25.916z
	 M85.45,16.344c0-3.165,2.675-5.74,5.962-5.74s5.96,2.575,5.96,5.74c0,3.165-2.673,5.739-5.96,5.739
	C88.126,22.083,85.45,19.509,85.45,16.344z"/>
<path fill="#FFFBFF" d="M118.096,25.916c0.063,0.057,0.141,0.084,0.219,0.084c0.082,0,0.164-0.031,0.227-0.093l4.674-4.681
	c1.143,0.912,2.604,1.461,4.199,1.461c3.633,0,6.588-2.847,6.588-6.345c0-3.498-2.956-6.343-6.589-6.343
	c-3.634,0-6.588,2.846-6.588,6.344c0,1.746,0.735,3.328,1.924,4.477l-4.66,4.669C117.967,25.609,117.973,25.8,118.096,25.916z
	 M121.45,16.344c0-3.165,2.675-5.74,5.962-5.74s5.96,2.575,5.96,5.74c0,3.165-2.673,5.739-5.96,5.739
	C124.126,22.083,121.45,19.509,121.45,16.344z"/>
<path fill="#FFFBFF" d="M154.096,25.916c0.063,0.057,0.141,0.084,0.219,0.084c0.082,0,0.164-0.031,0.227-0.093l4.674-4.681
	c1.143,0.912,2.604,1.461,4.199,1.461c3.633,0,6.588-2.847,6.588-6.345c0-3.498-2.956-6.343-6.589-6.343
	c-3.634,0-6.588,2.846-6.588,6.344c0,1.746,0.735,3.328,1.924,4.477l-4.66,4.669C153.967,25.609,153.973,25.8,154.096,25.916z
	 M157.45,16.344c0-3.165,2.675-5.74,5.962-5.74s5.96,2.575,5.96,5.74c0,3.165-2.673,5.739-5.96,5.739
	C160.126,22.083,157.45,19.509,157.45,16.344z"/>
</svg>
