<?xml version="1.0" encoding="utf-8"?>
<!-- Generator: Adobe Illustrator 15.0.0, SVG Export Plug-In . SVG Version: 6.00 Build 0)  -->
<!DOCTYPE svg PUBLIC "-//W3C//DTD SVG 1.1//EN" "http://www.w3.org/Graphics/SVG/1.1/DTD/svg11.dtd" [
	<!ENTITY ns_extend "http://ns.adobe.com/Extensibility/1.0/">
	<!ENTITY ns_ai "http://ns.adobe.com/AdobeIllustrator/10.0/">
	<!ENTITY ns_graphs "http://ns.adobe.com/Graphs/1.0/">
	<!ENTITY ns_vars "http://ns.adobe.com/Variables/1.0/">
	<!ENTITY ns_imrep "http://ns.adobe.com/ImageReplacement/1.0/">
	<!ENTITY ns_sfw "http://ns.adobe.com/SaveForWeb/1.0/">
	<!ENTITY ns_custom "http://ns.adobe.com/GenericCustomNamespace/1.0/">
	<!ENTITY ns_adobe_xpath "http://ns.adobe.com/XPath/1.0/">
]>
<svg version="1.1" id="Capa_1" xmlns:x="&ns_extend;" xmlns:i="&ns_ai;" xmlns:graph="&ns_graphs;"
	 xmlns="http://www.w3.org/2000/svg" xmlns:xlink="http://www.w3.org/1999/xlink" x="0px" y="0px" width="180px" height="36px"
	 viewBox="0 0 180 36" enable-background="new 0 0 180 36" xml:space="preserve">
<metadata>
	<sfw  xmlns="&ns_sfw;">
		<slices></slices>
		<sliceSourceBounds  height="16" width="160" y="20.5" x="-52.5" bottomLeftOrigin="true"></sliceSourceBounds>
	</sfw>
</metadata>
<g>
	<g>
		<g>
			<path fill="#FFFBFF" d="M97.934,12.328c-0.065-0.073-0.134-0.146-0.268-0.146H85l-0.334-1.89c0-0.145-0.199-0.291-0.332-0.291h-2
				C82.133,10,82,10.146,82,10.365c0,0.218,0.133,0.363,0.334,0.363h1.732l1.6,8.873c0.201,1.164,1.201,2.037,2.268,2.037H95.6
				c0.2,0,0.334-0.146,0.334-0.365c0-0.218-0.134-0.362-0.334-0.362H88c-0.533,0-1.066-0.291-1.334-0.8l9.734-1.456
				c0.133,0,0.266-0.146,0.266-0.292L98,12.545C98,12.545,98,12.4,97.934,12.328z M96.066,18l-9.732,1.38l-1.201-6.544H97.2
				L96.066,18z"/>
		</g>
	</g>
	<g>
		<g>
			<path fill="#FFFBFF" d="M87.666,22.363c-0.933,0-1.666,0.801-1.666,1.816c0,1.02,0.733,1.82,1.666,1.82
				c0.934,0,1.668-0.803,1.668-1.82C89.334,23.164,88.6,22.363,87.666,22.363z M87.666,25.271c-0.533,0-1-0.508-1-1.092
				c0-0.581,0.467-1.09,1-1.09c0.534,0,1,0.509,1,1.09C88.666,24.765,88.2,25.271,87.666,25.271z"/>
		</g>
	</g>
	<g>
		<g>
			<path fill="#FFFBFF" d="M94.334,22.363c-0.934,0-1.668,0.801-1.668,1.816c0,1.02,0.734,1.82,1.668,1.82S96,25.199,96,24.181
				C96,23.164,95.268,22.363,94.334,22.363z M94.334,25.271c-0.534,0-1-0.508-1-1.092c0-0.581,0.466-1.09,1-1.09
				c0.533,0,1,0.509,1,1.09C95.334,24.765,94.867,25.271,94.334,25.271z"/>
		</g>
	</g>
</g>
<g>
	<g>
		<g>
			<path fill="#FFFBFF" d="M133.934,12.328c-0.065-0.073-0.134-0.146-0.268-0.146H121l-0.334-1.89c0-0.146-0.199-0.291-0.332-0.291
				h-2c-0.201,0-0.334,0.146-0.334,0.364c0,0.218,0.133,0.363,0.334,0.363h1.732l1.6,8.873c0.201,1.164,1.201,2.037,2.268,2.037
				h7.666c0.2,0,0.334-0.146,0.334-0.365c0-0.218-0.134-0.362-0.334-0.362H124c-0.533,0-1.066-0.291-1.334-0.8l9.734-1.455
				c0.133,0,0.266-0.146,0.266-0.292L134,12.545C134,12.545,134,12.4,133.934,12.328z M132.066,18l-9.732,1.38l-1.201-6.544H133.2
				L132.066,18z"/>
		</g>
	</g>
	<g>
		<g>
			<path fill="#FFFBFF" d="M123.666,22.363c-0.934,0-1.666,0.801-1.666,1.816c0,1.02,0.732,1.82,1.666,1.82s1.668-0.803,1.668-1.82
				C125.334,23.164,124.6,22.363,123.666,22.363z M123.666,25.271c-0.533,0-1-0.508-1-1.092c0-0.581,0.467-1.09,1-1.09
				c0.534,0,1,0.509,1,1.09C124.666,24.765,124.2,25.271,123.666,25.271z"/>
		</g>
	</g>
	<g>
		<g>
			<path fill="#FFFBFF" d="M130.334,22.363c-0.934,0-1.668,0.801-1.668,1.816c0,1.02,0.734,1.82,1.668,1.82S132,25.197,132,24.18
				C132,23.164,131.268,22.363,130.334,22.363z M130.334,25.271c-0.534,0-1-0.508-1-1.092c0-0.581,0.466-1.09,1-1.09
				c0.533,0,1,0.509,1,1.09C131.334,24.765,130.867,25.271,130.334,25.271z"/>
		</g>
	</g>
</g>
<g>
	<g>
		<g>
			<path fill="#FFFBFF" d="M169.934,12.328c-0.065-0.073-0.134-0.146-0.268-0.146H157l-0.334-1.89c0-0.146-0.199-0.291-0.332-0.291
				h-2c-0.201,0-0.334,0.146-0.334,0.364c0,0.218,0.133,0.363,0.334,0.363h1.732l1.6,8.873c0.201,1.164,1.201,2.037,2.268,2.037
				h7.666c0.2,0,0.334-0.146,0.334-0.365c0-0.218-0.134-0.362-0.334-0.362H160c-0.533,0-1.066-0.291-1.334-0.8l9.734-1.455
				c0.133,0,0.266-0.146,0.266-0.292L170,12.545C170,12.545,170,12.4,169.934,12.328z M168.066,18l-9.732,1.38l-1.201-6.544H169.2
				L168.066,18z"/>
		</g>
	</g>
	<g>
		<g>
			<path fill="#FFFBFF" d="M159.666,22.363c-0.934,0-1.666,0.801-1.666,1.816c0,1.02,0.732,1.82,1.666,1.82s1.668-0.803,1.668-1.82
				C161.334,23.164,160.6,22.363,159.666,22.363z M159.666,25.271c-0.533,0-1-0.508-1-1.092c0-0.581,0.467-1.09,1-1.09
				c0.534,0,1,0.509,1,1.09C160.666,24.765,160.2,25.271,159.666,25.271z"/>
		</g>
	</g>
	<g>
		<g>
			<path fill="#FFFBFF" d="M166.334,22.363c-0.934,0-1.668,0.801-1.668,1.816c0,1.02,0.734,1.82,1.668,1.82S168,25.197,168,24.18
				C168,23.164,167.268,22.363,166.334,22.363z M166.334,25.271c-0.534,0-1-0.508-1-1.092c0-0.581,0.466-1.09,1-1.09
				c0.533,0,1,0.509,1,1.09C167.334,24.765,166.867,25.271,166.334,25.271z"/>
		</g>
	</g>
</g>
<g>
	<g>
		<g>
			<path fill="#FFFBFF" d="M61.934,12.328c-0.066-0.073-0.134-0.146-0.268-0.146H49l-0.334-1.89c0-0.145-0.199-0.291-0.332-0.291h-2
				C46.133,10,46,10.146,46,10.365c0,0.218,0.133,0.363,0.334,0.363h1.732l1.6,8.873c0.201,1.164,1.201,2.037,2.268,2.037H59.6
				c0.2,0,0.334-0.146,0.334-0.365c0-0.218-0.134-0.362-0.334-0.362H52c-0.533,0-1.066-0.291-1.334-0.8l9.734-1.456
				c0.133,0,0.266-0.146,0.266-0.292L62,12.545C62,12.545,62,12.4,61.934,12.328z M60.066,18l-9.732,1.38l-1.201-6.544H61.2
				L60.066,18z"/>
		</g>
	</g>
	<g>
		<g>
			<path fill="#FFFBFF" d="M51.666,22.363c-0.933,0-1.666,0.801-1.666,1.816c0,1.02,0.733,1.82,1.666,1.82
				c0.934,0,1.668-0.803,1.668-1.82C53.334,23.164,52.6,22.363,51.666,22.363z M51.666,25.271c-0.533,0-1-0.508-1-1.092
				c0-0.581,0.467-1.09,1-1.09c0.534,0,1,0.509,1,1.09C52.666,24.765,52.2,25.271,51.666,25.271z"/>
		</g>
	</g>
	<g>
		<g>
			<path fill="#FFFBFF" d="M58.334,22.363c-0.934,0-1.668,0.801-1.668,1.816c0,1.02,0.734,1.82,1.668,1.82
				C59.267,26,60,25.199,60,24.181C60,23.164,59.267,22.363,58.334,22.363z M58.334,25.271c-0.534,0-1-0.508-1-1.092
				c0-0.581,0.466-1.09,1-1.09c0.533,0,1,0.509,1,1.09C59.334,24.765,58.867,25.271,58.334,25.271z"/>
		</g>
	</g>
</g>
<g>
	<g>
		<g>
			<path fill="#FFFBFF" d="M25.934,12.328c-0.066-0.073-0.134-0.146-0.268-0.146H13l-0.334-1.89c0-0.145-0.199-0.291-0.332-0.291h-2
				C10.133,10,10,10.146,10,10.365c0,0.218,0.133,0.363,0.334,0.363h1.732l1.6,8.873c0.201,1.164,1.201,2.037,2.268,2.037H23.6
				c0.2,0,0.334-0.146,0.334-0.365c0-0.218-0.134-0.362-0.334-0.362H16c-0.533,0-1.066-0.291-1.334-0.8l9.734-1.456
				c0.133,0,0.266-0.146,0.266-0.292L26,12.545C26,12.545,26,12.4,25.934,12.328z M24.066,18l-9.732,1.38l-1.201-6.544H25.2
				L24.066,18z"/>
		</g>
	</g>
	<g>
		<g>
			<path fill="#FFFBFF" d="M15.666,22.363c-0.933,0-1.666,0.801-1.666,1.816c0,1.02,0.733,1.82,1.666,1.82
				c0.934,0,1.668-0.803,1.668-1.82C17.334,23.164,16.6,22.363,15.666,22.363z M15.666,25.271c-0.533,0-1-0.508-1-1.092
				c0-0.581,0.467-1.09,1-1.09c0.534,0,1,0.509,1,1.09C16.666,24.765,16.2,25.271,15.666,25.271z"/>
		</g>
	</g>
	<g>
		<g>
			<path fill="#FFFBFF" d="M22.334,22.363c-0.934,0-1.668,0.801-1.668,1.816c0,1.02,0.734,1.82,1.668,1.82
				C23.267,26,24,25.199,24,24.181C24,23.164,23.267,22.363,22.334,22.363z M22.334,25.271c-0.534,0-1-0.508-1-1.092
				c0-0.581,0.466-1.09,1-1.09c0.533,0,1,0.509,1,1.09C23.334,24.765,22.867,25.271,22.334,25.271z"/>
		</g>
	</g>
</g>
</svg>
