<?xml version="1.0" encoding="utf-8"?>
<!-- Generator: Adobe Illustrator 15.0.0, SVG Export Plug-In . SVG Version: 6.00 Build 0)  -->
<!DOCTYPE svg PUBLIC "-//W3C//DTD SVG 1.1//EN" "http://www.w3.org/Graphics/SVG/1.1/DTD/svg11.dtd" [
	<!ENTITY ns_extend "http://ns.adobe.com/Extensibility/1.0/">
	<!ENTITY ns_ai "http://ns.adobe.com/AdobeIllustrator/10.0/">
	<!ENTITY ns_graphs "http://ns.adobe.com/Graphs/1.0/">
	<!ENTITY ns_vars "http://ns.adobe.com/Variables/1.0/">
	<!ENTITY ns_imrep "http://ns.adobe.com/ImageReplacement/1.0/">
	<!ENTITY ns_sfw "http://ns.adobe.com/SaveForWeb/1.0/">
	<!ENTITY ns_custom "http://ns.adobe.com/GenericCustomNamespace/1.0/">
	<!ENTITY ns_adobe_xpath "http://ns.adobe.com/XPath/1.0/">
]>
<svg version="1.1" id="Capa_1" xmlns:x="&ns_extend;" xmlns:i="&ns_ai;" xmlns:graph="&ns_graphs;"
	 xmlns="http://www.w3.org/2000/svg" xmlns:xlink="http://www.w3.org/1999/xlink" x="0px" y="0px" width="180px" height="36px"
	 viewBox="0 0 180 36" enable-background="new 0 0 180 36" xml:space="preserve">
<metadata>
	<sfw  xmlns="&ns_sfw;">
		<slices></slices>
		<sliceSourceBounds  height="16" width="160" y="20.5" x="-52.5" bottomLeftOrigin="true"></sliceSourceBounds>
	</sfw>
</metadata>
<g>
	<path fill="#FFFBFF" d="M98,18c0-4.411-3.589-8-8-8s-8,3.589-8,8c0,2.33,1.002,4.43,2.597,5.893L84.589,23.9l0.26,0.219
		c0.017,0.014,0.035,0.025,0.052,0.039c0.139,0.115,0.281,0.223,0.426,0.328c0.048,0.033,0.095,0.068,0.143,0.102
		c0.156,0.107,0.314,0.209,0.479,0.305c0.035,0.021,0.07,0.041,0.106,0.063c0.179,0.102,0.36,0.197,0.547,0.285
		c0.014,0.007,0.028,0.013,0.042,0.019c0.607,0.283,1.256,0.49,1.934,0.612c0.019,0.003,0.036,0.007,0.055,0.01
		c0.21,0.036,0.423,0.064,0.639,0.085c0.026,0.002,0.053,0.005,0.078,0.007C89.563,25.988,89.78,26,90,26
		c0.218,0,0.433-0.012,0.646-0.027c0.025-0.004,0.055-0.005,0.08-0.008c0.215-0.02,0.426-0.047,0.635-0.083
		c0.018-0.003,0.035-0.007,0.055-0.01c0.668-0.12,1.307-0.323,1.907-0.599c0.022-0.01,0.044-0.021,0.065-0.029
		c0.18-0.084,0.354-0.176,0.525-0.271c0.043-0.024,0.086-0.05,0.129-0.074c0.156-0.092,0.311-0.188,0.459-0.291
		c0.057-0.037,0.105-0.075,0.16-0.113c0.127-0.092,0.253-0.188,0.375-0.286c0.025-0.021,0.056-0.041,0.082-0.063l0.268-0.223
		l-0.009-0.006C96.988,22.451,98,20.342,98,18z M82.582,18c0-4.09,3.328-7.418,7.418-7.418S97.418,13.91,97.418,18
		c0,2.204-0.967,4.186-2.498,5.545c-0.086-0.059-0.172-0.111-0.26-0.156l-2.463-1.229c-0.223-0.111-0.359-0.333-0.359-0.58v-0.86
		c0.059-0.07,0.117-0.148,0.18-0.236c0.318-0.451,0.574-0.951,0.762-1.49c0.369-0.176,0.605-0.542,0.605-0.957v-1.033
		c0-0.252-0.092-0.497-0.258-0.689v-1.358c0.016-0.151,0.068-1.003-0.547-1.706c-0.537-0.612-1.404-0.922-2.58-0.922
		s-2.043,0.31-2.58,0.922c-0.615,0.703-0.563,1.555-0.547,1.706v1.358c-0.166,0.192-0.258,0.437-0.258,0.689v1.031
		c0,0.32,0.143,0.619,0.389,0.82c0.236,0.924,0.721,1.623,0.9,1.858v0.843c0,0.236-0.129,0.455-0.338,0.568l-2.301,1.256
		c-0.072,0.039-0.146,0.086-0.219,0.139C83.535,22.158,82.582,20.188,82.582,18z M94.352,24.002
		c-0.102,0.074-0.205,0.146-0.311,0.214c-0.048,0.031-0.096,0.063-0.145,0.093c-0.14,0.086-0.277,0.166-0.42,0.242
		c-0.031,0.018-0.063,0.032-0.098,0.049c-0.327,0.168-0.666,0.313-1.014,0.43c-0.014,0.005-0.025,0.009-0.037,0.013
		c-0.184,0.062-0.367,0.114-0.557,0.16v0.001c-0.188,0.046-0.381,0.085-0.57,0.115c-0.008,0.002-0.012,0.002-0.018,0.005
		c-0.182,0.028-0.361,0.051-0.545,0.065c-0.033,0.004-0.063,0.006-0.098,0.008c-0.182,0.015-0.362,0.021-0.545,0.021
		c-0.185,0-0.368-0.009-0.551-0.021c-0.032-0.004-0.064-0.006-0.096-0.008c-0.184-0.017-0.367-0.039-0.549-0.068
		c-0.009-0.002-0.018-0.002-0.025-0.004c-0.385-0.063-0.763-0.158-1.131-0.282c-0.012-0.005-0.023-0.009-0.035-0.013
		c-0.183-0.062-0.363-0.131-0.541-0.207c-0.002,0-0.003,0-0.004-0.002c-0.168-0.071-0.333-0.151-0.496-0.236
		c-0.021-0.012-0.043-0.021-0.064-0.032c-0.148-0.08-0.293-0.166-0.438-0.256c-0.042-0.026-0.084-0.054-0.126-0.08
		c-0.132-0.087-0.263-0.177-0.39-0.271c-0.013-0.011-0.025-0.021-0.038-0.031c0.009-0.006,0.019-0.01,0.028-0.016l2.3-1.255
		c0.396-0.217,0.642-0.63,0.642-1.079v-1.05l-0.067-0.08c-0.007-0.008-0.636-0.772-0.873-1.809l-0.022-0.116l-0.1-0.064
		c-0.14-0.09-0.224-0.242-0.224-0.405v-1.032c0-0.135,0.058-0.261,0.162-0.356l0.097-0.087v-1.62L87.452,14.9
		c-0.001-0.007-0.087-0.707,0.405-1.269C88.279,13.152,89,12.909,90,12.909c0.996,0,1.715,0.241,2.137,0.717
		c0.492,0.556,0.412,1.269,0.411,1.274l-0.003,1.66l0.098,0.086c0.104,0.094,0.162,0.221,0.162,0.356v1.031
		c0,0.208-0.143,0.396-0.345,0.458l-0.146,0.044L92.27,18.68c-0.172,0.533-0.416,1.025-0.727,1.465
		c-0.076,0.107-0.15,0.203-0.215,0.275l-0.072,0.082v1.076c0,0.469,0.262,0.891,0.682,1.1L94.4,23.91
		c0.016,0.008,0.029,0.016,0.045,0.023C94.415,23.957,94.383,23.979,94.352,24.002z"/>
</g>
<g>
	<path fill="#FFFBFF" d="M62,18c0-4.411-3.589-8-8-8s-8,3.589-8,8c0,2.33,1.002,4.43,2.597,5.893L48.589,23.9l0.26,0.219
		c0.017,0.014,0.035,0.025,0.052,0.039c0.139,0.115,0.281,0.223,0.426,0.328c0.048,0.033,0.095,0.068,0.143,0.102
		c0.156,0.107,0.314,0.209,0.479,0.305c0.035,0.021,0.07,0.041,0.106,0.063c0.179,0.102,0.36,0.197,0.547,0.285
		c0.014,0.007,0.028,0.013,0.042,0.019c0.607,0.283,1.256,0.49,1.934,0.612c0.019,0.003,0.036,0.007,0.055,0.01
		c0.21,0.036,0.423,0.064,0.639,0.085c0.026,0.002,0.053,0.005,0.078,0.007C53.563,25.988,53.78,26,54,26
		c0.218,0,0.433-0.012,0.646-0.027c0.027-0.004,0.055-0.005,0.081-0.008c0.214-0.02,0.425-0.047,0.634-0.083
		c0.018-0.003,0.036-0.007,0.055-0.01c0.668-0.12,1.307-0.323,1.907-0.599c0.022-0.01,0.044-0.021,0.066-0.029
		c0.18-0.084,0.354-0.176,0.526-0.271c0.043-0.024,0.086-0.05,0.129-0.074c0.156-0.092,0.31-0.188,0.459-0.291
		c0.055-0.037,0.107-0.075,0.16-0.113c0.127-0.092,0.253-0.188,0.375-0.286c0.027-0.021,0.056-0.041,0.082-0.063l0.267-0.223
		l-0.008-0.006C60.988,22.451,62,20.342,62,18z M46.582,18c0-4.09,3.328-7.418,7.418-7.418S61.418,13.91,61.418,18
		c0,2.204-0.967,4.186-2.498,5.545c-0.086-0.059-0.172-0.111-0.26-0.156l-2.463-1.229c-0.222-0.111-0.359-0.333-0.359-0.58v-0.86
		c0.058-0.07,0.117-0.148,0.18-0.236c0.318-0.451,0.574-0.951,0.762-1.49c0.368-0.176,0.605-0.542,0.605-0.957v-1.033
		c0-0.252-0.092-0.497-0.258-0.689v-1.358c0.016-0.151,0.068-1.003-0.547-1.706c-0.537-0.612-1.404-0.922-2.58-0.922
		s-2.043,0.31-2.58,0.922c-0.615,0.703-0.563,1.555-0.547,1.706v1.358c-0.166,0.192-0.258,0.437-0.258,0.689v1.031
		c0,0.32,0.143,0.619,0.389,0.82c0.236,0.924,0.721,1.623,0.9,1.858v0.843c0,0.236-0.129,0.455-0.338,0.568l-2.301,1.256
		c-0.072,0.039-0.146,0.086-0.219,0.139C47.535,22.158,46.582,20.188,46.582,18z M58.352,24.002
		c-0.102,0.074-0.205,0.146-0.311,0.214c-0.048,0.031-0.096,0.063-0.145,0.093c-0.138,0.086-0.277,0.166-0.42,0.242
		c-0.031,0.018-0.063,0.032-0.096,0.049c-0.327,0.168-0.666,0.313-1.014,0.43c-0.013,0.005-0.025,0.009-0.037,0.013
		c-0.183,0.062-0.367,0.114-0.555,0.16c0,0,0,0.001-0.001,0.001c-0.188,0.046-0.38,0.085-0.571,0.115
		c-0.006,0.002-0.011,0.002-0.016,0.005c-0.182,0.028-0.363,0.051-0.546,0.065c-0.032,0.004-0.064,0.006-0.097,0.008
		c-0.182,0.015-0.362,0.021-0.545,0.021c-0.185,0-0.368-0.009-0.551-0.021c-0.032-0.004-0.064-0.006-0.096-0.008
		c-0.184-0.017-0.367-0.039-0.549-0.068c-0.009-0.002-0.018-0.002-0.025-0.004c-0.385-0.063-0.763-0.158-1.131-0.282
		c-0.012-0.005-0.023-0.009-0.035-0.013c-0.183-0.062-0.363-0.131-0.541-0.207c-0.002,0-0.003,0-0.004-0.002
		c-0.168-0.071-0.333-0.151-0.496-0.236c-0.021-0.012-0.043-0.021-0.064-0.032c-0.148-0.08-0.293-0.166-0.438-0.256
		c-0.042-0.026-0.084-0.054-0.126-0.08c-0.132-0.087-0.263-0.177-0.39-0.271c-0.013-0.011-0.025-0.021-0.038-0.031
		c0.009-0.006,0.019-0.01,0.028-0.016l2.3-1.255c0.396-0.217,0.642-0.63,0.642-1.079v-1.05l-0.067-0.08
		c-0.007-0.008-0.636-0.772-0.873-1.809l-0.024-0.116l-0.1-0.064c-0.14-0.09-0.224-0.242-0.224-0.405v-1.032
		c0-0.135,0.058-0.261,0.162-0.356l0.097-0.087v-1.62L51.452,14.9c-0.001-0.007-0.087-0.707,0.405-1.269
		C52.279,13.152,53,12.909,54,12.909c0.996,0,1.715,0.241,2.137,0.717c0.492,0.556,0.412,1.269,0.411,1.274l-0.003,1.66l0.097,0.086
		c0.104,0.094,0.162,0.221,0.162,0.356v1.031c0,0.208-0.142,0.396-0.344,0.458l-0.145,0.044l-0.046,0.145
		c-0.171,0.533-0.415,1.025-0.726,1.465c-0.076,0.107-0.15,0.203-0.215,0.275l-0.072,0.082v1.076c0,0.469,0.262,0.891,0.681,1.1
		L58.4,23.91c0.016,0.008,0.03,0.016,0.046,0.023C58.415,23.957,58.383,23.979,58.352,24.002z"/>
</g>
<g>
	<path fill="#FFFBFF" d="M26,18c0-4.411-3.589-8-8-8s-8,3.589-8,8c0,2.33,1.002,4.43,2.597,5.893L12.589,23.9l0.26,0.219
		c0.017,0.014,0.035,0.025,0.052,0.039c0.139,0.115,0.281,0.223,0.426,0.328c0.048,0.033,0.095,0.068,0.143,0.102
		c0.156,0.107,0.314,0.209,0.479,0.305c0.035,0.021,0.07,0.041,0.106,0.063c0.179,0.102,0.36,0.197,0.547,0.285
		c0.014,0.007,0.028,0.013,0.042,0.019c0.607,0.283,1.256,0.49,1.934,0.612c0.019,0.003,0.036,0.007,0.055,0.01
		c0.21,0.036,0.423,0.064,0.639,0.085c0.026,0.002,0.053,0.005,0.078,0.007C17.563,25.988,17.78,26,18,26
		c0.218,0,0.433-0.012,0.646-0.027c0.027-0.004,0.055-0.005,0.081-0.008c0.214-0.02,0.425-0.047,0.634-0.083
		c0.018-0.003,0.036-0.007,0.055-0.01c0.668-0.12,1.307-0.323,1.907-0.599c0.022-0.01,0.044-0.021,0.066-0.029
		c0.18-0.084,0.354-0.176,0.526-0.271c0.043-0.024,0.086-0.05,0.129-0.074c0.156-0.092,0.31-0.188,0.459-0.291
		c0.055-0.037,0.107-0.075,0.16-0.113c0.127-0.092,0.253-0.188,0.375-0.286c0.027-0.021,0.056-0.041,0.082-0.063l0.267-0.223
		l-0.008-0.006C24.988,22.451,26,20.342,26,18z M10.582,18c0-4.09,3.328-7.418,7.418-7.418S25.418,13.91,25.418,18
		c0,2.204-0.967,4.186-2.498,5.545c-0.086-0.059-0.172-0.111-0.26-0.156l-2.463-1.229c-0.222-0.111-0.359-0.333-0.359-0.58v-0.86
		c0.058-0.07,0.117-0.148,0.18-0.236c0.318-0.451,0.574-0.951,0.762-1.49c0.368-0.176,0.605-0.542,0.605-0.957v-1.033
		c0-0.252-0.092-0.497-0.258-0.689v-1.358c0.016-0.151,0.068-1.003-0.547-1.706c-0.537-0.612-1.404-0.922-2.58-0.922
		s-2.043,0.31-2.58,0.922c-0.615,0.703-0.563,1.555-0.547,1.706v1.358c-0.166,0.192-0.258,0.437-0.258,0.689v1.031
		c0,0.32,0.143,0.619,0.389,0.82c0.236,0.924,0.721,1.623,0.9,1.858v0.843c0,0.236-0.129,0.455-0.338,0.568l-2.301,1.256
		c-0.072,0.039-0.146,0.086-0.219,0.139C11.535,22.158,10.582,20.188,10.582,18z M22.352,24.002
		c-0.102,0.074-0.205,0.146-0.311,0.214c-0.048,0.031-0.096,0.063-0.145,0.093c-0.138,0.086-0.277,0.166-0.42,0.242
		c-0.031,0.018-0.063,0.032-0.096,0.049c-0.327,0.168-0.666,0.313-1.014,0.43c-0.013,0.005-0.025,0.009-0.037,0.013
		c-0.183,0.062-0.367,0.114-0.555,0.16c0,0,0,0.001-0.001,0.001c-0.188,0.046-0.38,0.085-0.571,0.115
		c-0.006,0.002-0.011,0.002-0.016,0.005c-0.182,0.028-0.363,0.051-0.546,0.065c-0.032,0.004-0.064,0.006-0.097,0.008
		c-0.182,0.015-0.362,0.021-0.545,0.021c-0.185,0-0.368-0.009-0.551-0.021c-0.032-0.004-0.064-0.006-0.096-0.008
		c-0.184-0.017-0.367-0.039-0.549-0.068c-0.009-0.002-0.018-0.002-0.025-0.004c-0.385-0.063-0.763-0.158-1.131-0.282
		c-0.012-0.005-0.023-0.009-0.035-0.013c-0.183-0.062-0.363-0.131-0.541-0.207c-0.002,0-0.003,0-0.004-0.002
		c-0.168-0.071-0.333-0.151-0.496-0.236c-0.021-0.012-0.043-0.021-0.064-0.032c-0.148-0.08-0.293-0.166-0.438-0.256
		c-0.042-0.026-0.084-0.054-0.126-0.08c-0.132-0.087-0.263-0.177-0.39-0.271c-0.013-0.011-0.025-0.021-0.038-0.031
		c0.009-0.006,0.019-0.01,0.028-0.016l2.3-1.255c0.396-0.217,0.642-0.63,0.642-1.079v-1.05l-0.067-0.08
		c-0.007-0.008-0.636-0.772-0.873-1.809l-0.024-0.116l-0.1-0.064c-0.14-0.09-0.224-0.242-0.224-0.405v-1.032
		c0-0.135,0.058-0.261,0.162-0.356l0.097-0.087v-1.62L15.452,14.9c-0.001-0.007-0.087-0.707,0.405-1.269
		C16.279,13.152,17,12.909,18,12.909c0.996,0,1.715,0.241,2.137,0.717c0.492,0.556,0.412,1.269,0.411,1.274l-0.003,1.66l0.097,0.086
		c0.104,0.094,0.162,0.221,0.162,0.356v1.031c0,0.208-0.142,0.396-0.344,0.458l-0.145,0.044l-0.046,0.145
		c-0.171,0.533-0.415,1.025-0.726,1.465c-0.076,0.107-0.15,0.203-0.215,0.275l-0.072,0.082v1.076c0,0.469,0.262,0.891,0.681,1.1
		L22.4,23.91c0.016,0.008,0.03,0.016,0.046,0.023C22.415,23.957,22.383,23.979,22.352,24.002z"/>
</g>
<g>
	<path fill="#FFFBFF" d="M134,18c0-4.411-3.589-8-8-8s-8,3.589-8,8c0,2.33,1.002,4.43,2.598,5.893l-0.009,0.008l0.261,0.22
		c0.018,0.014,0.034,0.024,0.051,0.039c0.141,0.114,0.281,0.223,0.428,0.327c0.048,0.035,0.095,0.068,0.145,0.103
		c0.154,0.106,0.313,0.209,0.479,0.306c0.035,0.021,0.07,0.041,0.105,0.062c0.18,0.103,0.359,0.196,0.547,0.285
		c0.015,0.007,0.027,0.013,0.043,0.019c0.605,0.283,1.256,0.49,1.934,0.612c0.02,0.003,0.035,0.007,0.055,0.01
		c0.211,0.036,0.424,0.065,0.639,0.085c0.026,0.002,0.055,0.004,0.078,0.006C125.563,25.988,125.779,26,126,26
		c0.218,0,0.434-0.012,0.646-0.027c0.025-0.004,0.055-0.005,0.08-0.008c0.215-0.02,0.426-0.047,0.635-0.083
		c0.018-0.003,0.035-0.007,0.055-0.01c0.668-0.12,1.307-0.323,1.907-0.599c0.022-0.01,0.044-0.021,0.065-0.029
		c0.18-0.084,0.354-0.176,0.525-0.271c0.043-0.024,0.086-0.05,0.129-0.074c0.156-0.092,0.311-0.188,0.459-0.291
		c0.057-0.037,0.105-0.075,0.16-0.113c0.127-0.092,0.253-0.188,0.375-0.286c0.025-0.021,0.056-0.041,0.082-0.063l0.268-0.223
		l-0.009-0.006C132.988,22.451,134,20.342,134,18z M118.582,18c0-4.09,3.328-7.418,7.418-7.418s7.418,3.328,7.418,7.418
		c0,2.204-0.967,4.186-2.498,5.545c-0.086-0.059-0.172-0.111-0.26-0.156l-2.463-1.229c-0.223-0.111-0.359-0.333-0.359-0.58v-0.86
		c0.059-0.07,0.117-0.148,0.18-0.236c0.318-0.451,0.574-0.951,0.762-1.49c0.369-0.176,0.605-0.542,0.605-0.957v-1.033
		c0-0.252-0.092-0.497-0.258-0.689v-1.358c0.016-0.151,0.068-1.003-0.547-1.706c-0.537-0.612-1.404-0.922-2.58-0.922
		s-2.043,0.31-2.58,0.922c-0.615,0.703-0.563,1.555-0.547,1.706v1.358c-0.166,0.192-0.258,0.437-0.258,0.689v1.031
		c0,0.32,0.143,0.619,0.389,0.82c0.236,0.924,0.721,1.623,0.9,1.858v0.843c0,0.236-0.129,0.455-0.338,0.568l-2.301,1.256
		c-0.072,0.039-0.146,0.086-0.221,0.139C119.535,22.158,118.582,20.188,118.582,18z M130.352,24.002
		c-0.102,0.074-0.205,0.146-0.311,0.214c-0.048,0.031-0.096,0.063-0.145,0.093c-0.14,0.086-0.277,0.166-0.42,0.242
		c-0.031,0.018-0.063,0.032-0.098,0.049c-0.327,0.168-0.666,0.313-1.014,0.43c-0.014,0.005-0.025,0.009-0.037,0.013
		c-0.184,0.062-0.367,0.114-0.557,0.16v0.001c-0.188,0.046-0.381,0.085-0.57,0.115c-0.008,0.002-0.012,0.002-0.018,0.005
		c-0.182,0.028-0.361,0.051-0.545,0.065c-0.033,0.004-0.063,0.006-0.098,0.008c-0.182,0.015-0.361,0.021-0.545,0.021
		c-0.186,0-0.368-0.009-0.551-0.021c-0.032-0.004-0.064-0.006-0.096-0.008c-0.186-0.017-0.367-0.039-0.551-0.068
		c-0.009-0.002-0.018-0.002-0.023-0.004c-0.385-0.063-0.765-0.158-1.131-0.282c-0.014-0.005-0.023-0.009-0.035-0.013
		c-0.185-0.062-0.363-0.131-0.541-0.207c-0.002,0-0.004,0-0.004-0.002c-0.168-0.071-0.334-0.151-0.496-0.236
		c-0.021-0.012-0.043-0.021-0.064-0.032c-0.148-0.08-0.293-0.166-0.438-0.256c-0.043-0.026-0.084-0.054-0.127-0.08
		c-0.131-0.087-0.263-0.177-0.391-0.271c-0.013-0.011-0.023-0.021-0.038-0.031c0.011-0.006,0.021-0.01,0.028-0.016l2.3-1.255
		c0.396-0.217,0.644-0.63,0.644-1.079v-1.05l-0.067-0.08c-0.007-0.008-0.636-0.772-0.873-1.809l-0.026-0.115l-0.1-0.064
		c-0.141-0.09-0.225-0.242-0.225-0.405v-1.033c0-0.135,0.059-0.261,0.162-0.356l0.098-0.087v-1.62l0.001-0.038
		c-0.001-0.007-0.087-0.707,0.405-1.269c0.422-0.479,1.143-0.722,2.143-0.722c0.996,0,1.715,0.241,2.137,0.717
		c0.492,0.556,0.412,1.269,0.411,1.274l-0.003,1.659l0.098,0.086c0.104,0.094,0.162,0.221,0.162,0.356v1.031
		c0,0.208-0.143,0.396-0.345,0.458l-0.146,0.044l-0.047,0.146c-0.17,0.532-0.414,1.024-0.727,1.463
		c-0.076,0.108-0.148,0.203-0.215,0.276l-0.072,0.082v1.076c0,0.469,0.264,0.891,0.682,1.1l2.465,1.232
		c0.016,0.008,0.029,0.016,0.045,0.022C130.415,23.957,130.383,23.979,130.352,24.002z"/>
</g>
<g>
	<path fill="#FFFBFF" d="M170,18c0-4.411-3.589-8-8-8s-8,3.589-8,8c0,2.33,1.002,4.43,2.598,5.893l-0.009,0.008l0.261,0.22
		c0.018,0.014,0.034,0.024,0.051,0.039c0.141,0.114,0.281,0.223,0.428,0.327c0.048,0.035,0.095,0.068,0.145,0.103
		c0.154,0.106,0.313,0.209,0.479,0.306c0.035,0.021,0.07,0.041,0.105,0.062c0.18,0.103,0.359,0.196,0.547,0.285
		c0.015,0.007,0.027,0.013,0.043,0.019c0.605,0.283,1.256,0.49,1.934,0.612c0.02,0.003,0.036,0.007,0.055,0.01
		c0.211,0.036,0.424,0.065,0.639,0.085c0.026,0.002,0.055,0.004,0.078,0.006C161.563,25.988,161.779,26,162,26
		c0.218,0,0.434-0.012,0.646-0.027c0.025-0.004,0.055-0.005,0.08-0.008c0.215-0.02,0.426-0.047,0.635-0.083
		c0.018-0.003,0.035-0.007,0.055-0.01c0.668-0.12,1.307-0.323,1.906-0.599c0.023-0.01,0.045-0.021,0.066-0.029
		c0.18-0.084,0.354-0.176,0.525-0.271c0.043-0.024,0.086-0.05,0.129-0.074c0.156-0.092,0.311-0.188,0.459-0.291
		c0.057-0.037,0.105-0.075,0.16-0.113c0.127-0.092,0.253-0.188,0.375-0.286c0.025-0.021,0.056-0.041,0.082-0.063l0.267-0.223
		l-0.008-0.006C168.988,22.451,170,20.342,170,18z M154.582,18c0-4.09,3.328-7.418,7.418-7.418s7.418,3.328,7.418,7.418
		c0,2.204-0.967,4.186-2.498,5.545c-0.086-0.059-0.172-0.111-0.26-0.156l-2.463-1.229c-0.223-0.111-0.359-0.333-0.359-0.58v-0.86
		c0.059-0.07,0.117-0.148,0.18-0.236c0.318-0.451,0.574-0.951,0.762-1.49c0.369-0.176,0.605-0.542,0.605-0.957v-1.033
		c0-0.252-0.092-0.497-0.258-0.689v-1.358c0.016-0.151,0.068-1.003-0.547-1.706c-0.537-0.612-1.404-0.922-2.58-0.922
		s-2.043,0.31-2.58,0.922c-0.615,0.703-0.563,1.555-0.547,1.706v1.358c-0.166,0.192-0.258,0.437-0.258,0.689v1.031
		c0,0.32,0.143,0.619,0.389,0.82c0.236,0.924,0.721,1.623,0.9,1.858v0.843c0,0.236-0.129,0.455-0.338,0.568l-2.301,1.256
		c-0.072,0.039-0.146,0.086-0.221,0.139C155.535,22.158,154.582,20.188,154.582,18z M166.352,24.002
		c-0.102,0.074-0.205,0.146-0.311,0.214c-0.048,0.031-0.096,0.063-0.145,0.093c-0.14,0.086-0.277,0.166-0.42,0.242
		c-0.031,0.018-0.063,0.032-0.098,0.049c-0.327,0.168-0.666,0.313-1.014,0.43c-0.014,0.005-0.025,0.009-0.037,0.013
		c-0.184,0.062-0.367,0.114-0.557,0.16v0.001c-0.188,0.046-0.381,0.085-0.57,0.115c-0.008,0.002-0.012,0.002-0.018,0.005
		c-0.182,0.028-0.363,0.051-0.545,0.065c-0.033,0.004-0.063,0.006-0.098,0.008c-0.182,0.015-0.361,0.021-0.545,0.021
		c-0.186,0-0.368-0.009-0.551-0.021c-0.032-0.004-0.064-0.006-0.096-0.008c-0.186-0.017-0.367-0.039-0.551-0.068
		c-0.009-0.002-0.018-0.002-0.023-0.004c-0.385-0.063-0.765-0.158-1.131-0.282c-0.014-0.005-0.023-0.009-0.035-0.013
		c-0.185-0.062-0.363-0.131-0.541-0.207c-0.002,0-0.004,0-0.004-0.002c-0.168-0.071-0.334-0.151-0.496-0.236
		c-0.021-0.012-0.043-0.021-0.064-0.032c-0.148-0.08-0.293-0.166-0.438-0.256c-0.043-0.026-0.084-0.054-0.127-0.08
		c-0.131-0.087-0.263-0.177-0.391-0.271c-0.013-0.011-0.023-0.021-0.037-0.031c0.01-0.006,0.02-0.01,0.027-0.016l2.3-1.255
		c0.396-0.217,0.644-0.63,0.644-1.079v-1.05l-0.067-0.08c-0.007-0.008-0.636-0.772-0.873-1.809l-0.026-0.115l-0.1-0.064
		c-0.141-0.09-0.225-0.242-0.225-0.405v-1.033c0-0.135,0.059-0.261,0.162-0.356l0.098-0.087v-1.62l0.001-0.038
		c-0.001-0.007-0.087-0.707,0.405-1.269c0.422-0.479,1.143-0.722,2.143-0.722c0.996,0,1.715,0.241,2.137,0.717
		c0.492,0.556,0.412,1.269,0.411,1.274l-0.003,1.659l0.098,0.086c0.104,0.094,0.162,0.221,0.162,0.356v1.031
		c0,0.208-0.143,0.396-0.345,0.458l-0.146,0.044l-0.047,0.146c-0.17,0.532-0.414,1.024-0.727,1.463
		c-0.076,0.108-0.148,0.203-0.215,0.276l-0.072,0.082v1.076c0,0.469,0.264,0.891,0.682,1.1l2.465,1.232
		c0.016,0.008,0.029,0.016,0.045,0.022C166.415,23.957,166.383,23.979,166.352,24.002z"/>
</g>
</svg>
