<?xml version="1.0" encoding="utf-8"?>
<!-- Generator: Adobe Illustrator 15.0.2, SVG Export Plug-In . SVG Version: 6.00 Build 0)  -->
<!DOCTYPE svg PUBLIC "-//W3C//DTD SVG 1.1//EN" "http://www.w3.org/Graphics/SVG/1.1/DTD/svg11.dtd">
<svg version="1.1" id="Calque_1" xmlns="http://www.w3.org/2000/svg" xmlns:xlink="http://www.w3.org/1999/xlink" x="0px" y="0px"
	 width="512.053px" height="37px" viewBox="0 0 512.053 37" enable-background="new 0 0 512.053 37" xml:space="preserve">
<g id="Effet_NoPatch">
</g>
<g>
	<g>
		<path fill="#C0C0C0" d="M119.006,1c0.551,0,1,0.449,1,1v33c0,0.552-0.449,1-1,1h-110c-0.551,0-1-0.448-1-1V2c0-0.551,0.449-1,1-1
			H119.006 M119.006,0h-110c-1.104,0-2,0.9-2,2v33c0,1.1,0.896,2,2,2h110c1.1,0,2-0.9,2-2V2C121.006,0.9,120.106,0,119.006,0
			L119.006,0z"/>
	</g>
</g>
<g>
	<g>
		<g>
			<path fill="#132C49" d="M247.006,2v33h-110V2H247.006 M247.006,0h-110c-1.104,0-2,0.9-2,2v33c0,1.1,0.896,2,2,2h110
				c1.1,0,2-0.9,2-2V2C249.006,0.9,248.106,0,247.006,0L247.006,0z"/>
		</g>
	</g>
</g>
<g>
	<g>
		<path fill="#E65E84" d="M263.006,2c0-1.1,0.896-2,2-2h110c1.1,0,2,0.9,2,2v33c0,1.1-0.9,2-2,2h-110c-1.104,0-2-0.9-2-2V2z"/>
	</g>
</g>
<g opacity="0.25">
	<g>
		<path fill="#000001" d="M391.006,2c0-1.1,0.896-2,2-2h110c1.1,0,2,0.9,2,2v33c0,1.1-0.9,2-2,2h-110c-1.104,0-2-0.9-2-2V2z"/>
	</g>
</g>
</svg>
