<?xml version="1.0" encoding="utf-8"?>
<!-- Generator: Adobe Illustrator 15.0.2, SVG Export Plug-In . SVG Version: 6.00 Build 0)  -->
<!DOCTYPE svg PUBLIC "-//W3C//DTD SVG 1.1//EN" "http://www.w3.org/Graphics/SVG/1.1/DTD/svg11.dtd">
<svg version="1.1" id="Calque_1" xmlns="http://www.w3.org/2000/svg" xmlns:xlink="http://www.w3.org/1999/xlink" x="0px" y="0px"
	 width="168px" height="14.083px" viewBox="0 0 168 14.083" enable-background="new 0 0 168 14.083" xml:space="preserve">
<rect y="0.042" fill="none" width="168" height="14"/>
<g>
	<circle fill="#EEEBE8" cx="7" cy="7.042" r="6"/>
	<circle fill="#FFFFFF" cx="7" cy="7.042" r="5"/>
	<circle fill="#EEEBE8" cx="7" cy="7.042" r="3.5"/>
	<circle fill="#EEEBE8" cx="21" cy="7.042" r="6"/>
	<circle fill="#EEEBE8" cx="35" cy="7.042" r="6"/>
	<circle fill="#EEEBE8" cx="49" cy="7.042" r="6"/>
	<g>
		<path fill="#FFFFFF" d="M63,12.542c-3.033,0-5.5-2.469-5.5-5.5c0-3.033,2.467-5.5,5.5-5.5s5.5,2.467,5.5,5.5
			C68.5,10.073,66.033,12.542,63,12.542z"/>
		<path fill="#C8F87C" d="M63,2.042c2.757,0,5,2.242,5,5c0,2.755-2.243,5-5,5s-5-2.244-5-5C58,4.284,60.243,2.042,63,2.042
			 M63,1.042c-3.313,0-6,2.686-6,6c0,3.313,2.687,6,6,6s6-2.688,6-6C69,3.727,66.313,1.042,63,1.042L63,1.042z"/>
	</g>
	<circle fill="#EEEBE8" cx="77" cy="7.042" r="6"/>
	<g>
		<path fill="#FFFFFF" d="M91,12.542c-3.031,0-5.5-2.469-5.5-5.5c0-3.033,2.469-5.5,5.5-5.5s5.5,2.467,5.5,5.5
			C96.5,10.073,94.031,12.542,91,12.542z"/>
		<path fill="#C8F87C" d="M91,2.042c2.757,0,5,2.242,5,5c0,2.755-2.243,5-5,5s-5-2.244-5-5C86,4.284,88.243,2.042,91,2.042
			 M91,1.042c-3.313,0-6,2.686-6,6c0,3.313,2.688,6,6,6s6-2.688,6-6C97,3.727,94.313,1.042,91,1.042L91,1.042z"/>
	</g>
	<g>
		<path fill="#FFFFFF" d="M105,12.542c-3.031,0-5.5-2.469-5.5-5.5c0-3.033,2.469-5.5,5.5-5.5s5.5,2.467,5.5,5.5
			C110.5,10.073,108.031,12.542,105,12.542z"/>
		<path fill="#C8F87C" d="M105,2.042c2.757,0,5,2.242,5,5c0,2.755-2.243,5-5,5s-5-2.244-5-5C100,4.284,102.243,2.042,105,2.042
			 M105,1.042c-3.313,0-6,2.686-6,6c0,3.313,2.688,6,6,6s6-2.688,6-6C111,3.727,108.313,1.042,105,1.042L105,1.042z"/>
	</g>
	<circle fill="#EEEBE8" cx="119" cy="7.042" r="6"/>
	<g>
		<path fill="#FFFFFF" d="M133,12.542c-3.031,0-5.5-2.469-5.5-5.5c0-3.033,2.469-5.5,5.5-5.5s5.5,2.467,5.5,5.5
			C138.5,10.073,136.031,12.542,133,12.542z"/>
		<path fill="#C8F87C" d="M133,2.042c2.757,0,5,2.242,5,5c0,2.755-2.243,5-5,5s-5-2.244-5-5C128,4.284,130.243,2.042,133,2.042
			 M133,1.042c-3.313,0-6,2.686-6,6c0,3.313,2.688,6,6,6s6-2.688,6-6C139,3.727,136.313,1.042,133,1.042L133,1.042z"/>
	</g>
	<g>
		<path fill="#FFFFFF" d="M147,12.542c-3.031,0-5.5-2.469-5.5-5.5c0-3.033,2.469-5.5,5.5-5.5s5.5,2.467,5.5,5.5
			C152.5,10.073,150.031,12.542,147,12.542z"/>
		<path fill="#C8F87C" d="M147,2.042c2.757,0,5,2.242,5,5c0,2.755-2.243,5-5,5s-5-2.244-5-5C142,4.284,144.243,2.042,147,2.042
			 M147,1.042c-3.313,0-6,2.686-6,6c0,3.313,2.688,6,6,6s6-2.688,6-6C153,3.727,150.313,1.042,147,1.042L147,1.042z"/>
	</g>
	<g>
		<path fill="#FFFFFF" d="M161,12.542c-3.031,0-5.5-2.469-5.5-5.5c0-3.033,2.469-5.5,5.5-5.5s5.5,2.467,5.5,5.5
			C166.5,10.073,164.031,12.542,161,12.542z"/>
		<path fill="#C8F87C" d="M161,2.042c2.757,0,5,2.242,5,5c0,2.755-2.243,5-5,5s-5-2.244-5-5C156,4.284,158.243,2.042,161,2.042
			 M161,1.042c-3.313,0-6,2.686-6,6c0,3.313,2.688,6,6,6s6-2.688,6-6C167,3.727,164.313,1.042,161,1.042L161,1.042z"/>
	</g>
	<circle fill="#FFFFFF" cx="21" cy="7.042" r="5"/>
	<circle fill="#EEEBE8" cx="21" cy="7.042" r="3.5"/>
	<circle fill="#FFFFFF" cx="35" cy="7.042" r="5"/>
	<circle fill="#EEEBE8" cx="35" cy="7.042" r="3.5"/>
	<circle fill="#FFFFFF" cx="49" cy="7.042" r="5"/>
	<circle fill="#EEEBE8" cx="49" cy="7.042" r="3.5"/>
	<circle fill="#FFFFFF" cx="77" cy="7.042" r="5"/>
	<circle fill="#EEEBE8" cx="77" cy="7.042" r="3.5"/>
	<circle fill="#FFFFFF" cx="119" cy="7.042" r="5"/>
	<circle fill="#EEEBE8" cx="119" cy="7.042" r="3.5"/>
</g>
</svg>
