<?xml version="1.0" encoding="utf-8"?>
<!-- Generator: Adobe Illustrator 15.0.0, SVG Export Plug-In . SVG Version: 6.00 Build 0)  -->
<!DOCTYPE svg PUBLIC "-//W3C//DTD SVG 1.1//EN" "http://www.w3.org/Graphics/SVG/1.1/DTD/svg11.dtd">
<svg version="1.1" id="Calque_1" xmlns="http://www.w3.org/2000/svg" xmlns:xlink="http://www.w3.org/1999/xlink" x="0px" y="0px"
	 width="160px" height="30px" viewBox="0 0 160 30" enable-background="new 0 0 160 30" xml:space="preserve">
<g>
	<g>
		<g>
			<g>
				<g>
					<path fill="#C0C0C0" d="M15.979,3.013l3.049,8.625l0.232,0.66h0.711h9.151l-7.307,5.675l-0.546,0.424l0.215,0.651l2.829,8.564
						l-7.786-5.102l-0.557-0.364l-0.556,0.366l-7.731,5.092l2.826-8.556l0.215-0.65l-0.547-0.424L2.873,12.3h9.15h0.715l0.231-0.664
						L15.979,3.013 M15.973,0l-3.946,11.318H0l9.561,7.429L5.842,30l10.133-6.671L26.156,30l-3.718-11.255L32,11.317H19.973
						L15.973,0L15.973,0z"/>
				</g>
			</g>
		</g>
	</g>
</g>
<g>
	<g>
		<g>
			<g>
				<polygon fill="#C0C0C0" points="76.027,11.317 79.975,0 83.971,11.317 96,11.317 86.438,18.745 90.156,30 79.975,23.33 
					69.842,30 73.561,18.745 64,11.317 				"/>
			</g>
		</g>
	</g>
</g>
<g>
	<g>
		<g>
			<g>
				<polygon fill="#F0BD40" points="108.027,11.317 111.975,0 115.971,11.317 128,11.317 118.438,18.745 122.156,30 111.975,23.33 
					101.842,30 105.561,18.745 96,11.317 				"/>
			</g>
		</g>
	</g>
</g>
<g>
	<g>
		<g>
			<g>
				<polygon fill="#F0BD40" points="140.027,11.317 143.975,0 147.971,11.317 160,11.317 150.438,18.745 154.156,30 143.975,23.33 
					133.842,30 137.561,18.745 128,11.317 				"/>
			</g>
		</g>
	</g>
</g>
<g>
	<g>
		<g>
			<g>
				<polygon fill="#F0BD40" points="44.027,11.317 47.975,0 51.971,11.317 64,11.317 54.438,18.745 58.156,30 47.975,23.33 
					37.842,30 41.561,18.745 32,11.317 				"/>
			</g>
		</g>
	</g>
</g>
</svg>
