<?xml version="1.0" encoding="utf-8"?>
<!-- Generator: Adobe Illustrator 15.0.2, SVG Export Plug-In . SVG Version: 6.00 Build 0)  -->
<!DOCTYPE svg PUBLIC "-//W3C//DTD SVG 1.1//EN" "http://www.w3.org/Graphics/SVG/1.1/DTD/svg11.dtd">
<svg xmlns="http://www.w3.org/2000/svg" xmlns:xlink="http://www.w3.org/1999/xlink" version="1.1" id="Calque_1" x="0px" y="0px" width="15px" height="15px" viewBox="0 0 11 11" enable-background="new 0 0 11 11" xml:space="preserve">
<g id="search">
	<path fill="#808090" d="M6.428,5.656H6.016L5.862,5.504c0.515-0.566,0.824-1.338,0.824-2.161C6.686,1.492,5.193,0,3.342,0   C1.492,0,0,1.492,0,3.343c0,1.853,1.492,3.343,3.342,3.343c0.823,0,1.596-0.309,2.16-0.821l0.154,0.151v0.412L8.23,9L9,8.23   L6.428,5.656z M3.342,5.656c-1.285,0-2.314-1.027-2.314-2.313c0-1.285,1.029-2.314,2.314-2.314c1.287,0,2.314,1.029,2.314,2.314   C5.656,4.63,4.629,5.656,3.342,5.656z"/>
</g>
</svg>
