<?xml version="1.0" encoding="utf-8"?>
<!-- Generator: Adobe Illustrator 15.0.2, SVG Export Plug-In . SVG Version: 6.00 Build 0)  -->
<!DOCTYPE svg PUBLIC "-//W3C//DTD SVG 1.1//EN" "http://www.w3.org/Graphics/SVG/1.1/DTD/svg11.dtd">
<svg version="1.1" id="Calque_1" xmlns="http://www.w3.org/2000/svg" xmlns:xlink="http://www.w3.org/1999/xlink" x="0px" y="0px"
	 width="384px" height="45px" viewBox="0 0 384 45" enable-background="new 0 0 384 45" xml:space="preserve">
<path fill="#00CC00" d="M80,5.5c0-1.1-0.9-2-2-2H50c-1.104,0-2,0.9-2,2v4c0,1.1,0.896,2,2,2h28c1.1,0,2-0.9,2-2V5.5z"/>
<path fill="#00CC00" d="M176,5.5c0-1.1-0.9-2-2-2h-28c-1.104,0-2,0.9-2,2v4c0,1.1,0.896,2,2,2h28c1.1,0,2-0.9,2-2V5.5z"/>
<path fill="#00CC00" d="M272,5.5c0-1.1-0.9-2-2-2h-28c-1.104,0-2,0.9-2,2v4c0,1.1,0.896,2,2,2h28c1.1,0,2-0.9,2-2V5.5z"/>
<path fill="#00CC00" d="M368,5.5c0-1.1-0.9-2-2-2h-28c-1.104,0-2,0.9-2,2v4c0,1.1,0.896,2,2,2h28c1.1,0,2-0.9,2-2V5.5z"/>
</svg>
