<?xml version="1.0" encoding="utf-8"?>
<!-- Generator: Adobe Illustrator 24.0.1, SVG Export Plug-In . SVG Version: 6.00 Build 0)  -->
<svg version="1.1" id="Calque_1" xmlns="http://www.w3.org/2000/svg" xmlns:xlink="http://www.w3.org/1999/xlink" x="0px" y="0px"
	 viewBox="0 0 22 18" style="enable-background:new 0 0 22 18;" xml:space="preserve">
<style type="text/css">
	.st0{fill:#808080;}
</style>
<g>
	<path class="st0" d="M10,5.1C7,5.1,4.2,6.8,2.1,9.5C2,9.8,2,10.1,2.1,10.3c2,2.7,4.8,4.4,7.9,4.4s5.8-1.7,7.9-4.4
		c0.2-0.2,0.2-0.5,0-0.8C15.8,6.8,13.1,5.1,10,5.1z M10.2,13.3c-2,0.1-3.7-1.5-3.6-3.6c0.1-1.7,1.5-3,3.1-3.1c2-0.1,3.7,1.5,3.6,3.6
		C13.3,11.8,11.9,13.2,10.2,13.3z M10.1,11.7c-1.1,0.1-2-0.8-1.9-1.9C8.3,8.9,9,8.2,9.9,8.1c1.1-0.1,2,0.8,1.9,1.9
		C11.8,10.9,11,11.7,10.1,11.7z"/>
</g>
</svg>
